<svg width="558" height="400" viewBox="0 0 558 400" fill="none" xmlns="http://www.w3.org/2000/svg">
<g clip-path="url(#clip0)">
<path opacity="0.1" d="M47.7958 397.507H535.77C576.225 362.84 555.403 258.552 521.621 237.41C485.219 214.648 543.002 135.939 486.991 110.385C450.418 93.7054 392.247 111.893 400.062 67.2656C410.922 5.37328 284.096 -10.4831 190.663 6.18356C89.6585 24.2339 181.902 112.903 70.8506 130.778C13.7353 139.966 24.7409 218.562 30.1042 234.792C34.7394 248.941 65.4267 271.379 22.8237 302.282C-39.8005 347.595 46.3518 396.672 47.7958 397.507Z" fill="#9BC1F9"/>
<path d="M481.252 132.785C481.252 132.785 473.268 150.648 467.904 158.19C462.541 165.732 457.396 172.987 453.076 193.904C448.757 214.822 449.521 216.953 448.356 222.363C447.191 227.774 439.535 249.688 439.498 253.715C439.462 257.741 424.052 280.616 420.084 291.324C416.116 302.032 409.163 317.327 409.551 325.118L411.311 324.657C412.978 311.557 417.634 299.046 424.901 288.145C437.035 269.796 435.336 266.33 449.169 256.894C463.002 247.457 471.921 221.429 471.921 221.429C471.921 221.429 485.972 193.144 485.268 178.434C484.564 163.725 488.435 150.461 481.252 132.785Z" fill="#440F9E"/>
<path d="M462.541 105.31C462.541 105.31 462.08 117.041 458.391 124.009C454.702 130.977 451.535 135.228 450.868 142.708C450.201 150.187 447.883 169.746 437.605 179.22C427.328 188.694 426.017 217.153 418.191 225.767C410.364 234.38 409.345 240.551 410.789 255.31C412.233 270.07 417.147 290.526 405.79 317.215L403.229 310.583C403.229 310.583 411.347 288.619 409.381 275.754C407.416 262.89 400.584 243.468 403.084 234.144C405.583 224.819 396.276 222.999 401.87 208.913C407.464 194.827 405.171 189.915 412.791 177.749C412.791 177.749 413.568 177.188 415.582 166.866C417.596 156.544 433.783 137.659 441.209 131.214C448.635 124.769 459.435 114.398 462.541 105.31Z" fill="#581BBF"/>
<path d="M432.193 163.413C432.193 163.413 423.275 179.107 423.141 189.205C423.008 199.302 424.088 207.529 419.574 221.354C415.06 235.178 424.015 243.942 421.43 251.571C418.846 259.2 418.652 268.25 418.725 275.106C418.797 281.962 408.508 304.662 406.942 316.156C405.377 327.649 407.379 327.686 407.379 327.686C407.379 327.686 409.078 312.516 411.456 307.492C413.834 302.468 421.03 285.178 422.717 278.497C424.403 271.815 428.954 267.502 432.897 256.171C436.841 244.839 442.422 235.303 441.998 219.222C441.573 203.141 447.871 186.163 432.193 163.413Z" fill="#3C8F7C"/>
<path d="M413.301 317.153C413.301 317.153 417.463 297.208 435.009 295.251C452.555 293.293 462.917 296.821 475.258 282.274C487.598 267.726 494.854 244.627 498.81 240.651C498.81 240.651 492.585 237.36 482.235 247.295C471.884 257.23 464.604 264.747 458.61 270.581C452.615 276.415 447.75 272.6 441.415 276.415C436.113 279.606 429.281 288.881 426.236 293.705C425.258 295.277 424.087 296.714 422.753 297.981C421.54 299.14 420.096 300.549 419.113 301.583C417.256 303.665 411.905 317.228 411.905 317.228L413.301 317.153Z" fill="#3C8F7C"/>
<path d="M407.124 313.637C407.124 313.637 413.301 289.279 409.163 277.362C405.025 265.445 392.054 256.619 392.576 249.127C393.097 241.635 401.421 221.404 394.638 206.333C394.638 206.333 392.054 219.771 389.506 222.762C386.957 225.754 369.509 237.809 372.603 253.74C375.697 269.671 392.673 273.386 396.871 278.073C401.069 282.76 406.7 282.747 406.736 285.864C406.772 288.98 407.877 300.312 405.996 311.506L407.124 313.637Z" fill="#3C8F7C"/>
<path d="M413.883 297.332L422.571 271.628C422.571 271.628 427.667 250.947 430.628 233.707C433.589 216.467 432.193 163.413 432.193 163.413C432.193 163.413 423.275 179.107 423.141 189.205C423.008 199.302 424.088 207.529 419.574 221.354C415.06 235.178 424.015 243.942 421.43 251.571C418.846 259.2 418.652 268.25 418.724 275.106C418.797 281.962 408.507 304.662 406.942 316.156C406.081 322.388 406.299 325.305 406.663 326.602C405.268 316.554 413.883 297.332 413.883 297.332Z" fill="#327F6B"/>
<path d="M456.717 282.024C448.975 283.608 442.046 283.072 432.837 290.102C427.378 294.268 422.482 299.16 418.276 304.65C418.276 304.65 414.15 312.241 412.439 316.243C412.184 316.854 412.051 317.228 412.051 317.228L413.398 317.153C413.398 317.153 417.56 297.208 435.106 295.251C452.652 293.293 463.014 296.821 475.355 282.274C487.695 267.726 494.951 244.627 498.907 240.651C498.907 240.651 485.729 251.184 477.587 260.509C469.445 269.833 464.422 280.429 456.717 282.024Z" fill="#327F6B"/>
<path d="M389.505 222.762C386.969 225.754 369.508 237.809 372.602 253.74C375.697 269.671 392.672 273.386 396.871 278.073C401.069 282.76 406.699 282.747 406.736 285.864C406.772 288.98 407.876 300.312 405.996 311.506L406.493 312.428C407.655 307.14 408.518 301.788 409.078 296.397C409.745 288.207 408.459 284.817 405.899 278.173C403.338 271.528 387.394 258.003 383.402 250.898C379.41 243.792 391.107 231.9 393.692 226.166C396.276 220.431 394.638 206.358 394.638 206.358C394.638 206.358 392.053 219.771 389.505 222.762Z" fill="#327F6B"/>
<path d="M430.931 301.87L433.662 295.151C434.115 293.981 434.79 292.915 435.647 292.014C436.503 291.113 437.525 290.395 438.653 289.902C439.781 289.408 440.993 289.148 442.218 289.138C443.444 289.127 444.66 289.366 445.796 289.84C457.287 294.989 462.298 309.349 456.959 321.902L453.076 331.027C452.262 332.891 451.945 334.943 452.158 336.974C452.371 339.005 453.107 340.941 454.29 342.583C455.311 344.041 455.94 345.751 456.113 347.539C456.286 349.328 455.996 351.131 455.272 352.767L453.21 357.604C452.134 360.154 450.532 362.433 448.514 364.284C446.497 366.135 444.112 367.514 441.525 368.325C439.938 368.823 438.476 369.674 437.244 370.815C436.011 371.956 435.037 373.362 434.39 374.931L431.477 381.775C428.262 389.354 420.023 392.994 413.094 389.853L409.126 388.083C402.186 384.966 399.176 376.303 402.392 368.736C407.597 359.673 407.185 352.917 405.341 348.342C403.982 344.94 403.304 341.292 403.345 337.615C403.387 333.938 404.148 330.307 405.583 326.938L405.996 325.966C407.501 322.42 409.724 319.244 412.517 316.65C415.31 314.056 418.61 312.102 422.195 310.92C425.338 309.835 428.614 307.33 430.931 301.87Z" fill="#50BFA5"/>
<path d="M381.825 397.507C387.406 390.027 418.009 350.237 437.969 343.605C459.993 336.275 439.183 365.37 439.183 365.37C439.183 365.37 478.255 321.478 492.573 325.48C505.726 329.107 492.573 356.32 492.573 356.32C492.573 356.32 507.377 341.261 525.335 341.261C542.808 341.261 513.128 394.69 511.526 397.557L381.825 397.507Z" fill="#96D9C9"/>
<path d="M499.586 311.356C483.486 337.202 471.887 365.73 465.307 395.662L464.215 395.363C470.857 365.696 482.406 337.42 498.361 311.768C502.062 305.821 506.066 298.766 512.995 296.447C513.14 296.447 513.189 296.609 513.055 296.659C506.721 299.102 503.057 305.784 499.586 311.356Z" fill="#3C8F7C"/>
<path d="M469.154 396.709C487.61 370.915 509.616 348.013 534.484 328.721C534.739 328.522 535.079 328.983 534.824 329.182C510.322 348.524 488.663 371.393 470.513 397.083L469.154 396.709Z" fill="#3C8F7C"/>
<path d="M501.042 295.462C502.152 296.717 502.981 298.206 503.469 299.825C503.862 301.283 503.887 302.818 503.542 304.288C504.706 303.095 505.543 301.607 505.969 299.975C506.758 297.407 506.212 293.842 505.229 292.658C503.542 289.99 500.606 289.716 500.035 291.012C499.465 292.309 500.217 294.041 501.042 295.462Z" fill="#3C8F7C"/>
<path d="M504.865 318.325C503.668 317.153 502.235 316.268 500.666 315.732C499.255 315.302 497.762 315.242 496.322 315.557C497.513 314.394 498.976 313.565 500.569 313.151C503.093 312.391 506.539 313.027 507.68 314.061C510.24 315.844 510.446 318.873 509.172 319.434C507.898 319.995 506.224 319.197 504.865 318.325Z" fill="#3C8F7C"/>
<path d="M499.101 328.347C497.903 327.175 496.47 326.286 494.903 325.742C493.49 325.319 491.997 325.264 490.559 325.58C491.749 324.416 493.212 323.587 494.806 323.174C497.329 322.413 500.776 323.049 501.916 324.071C504.476 325.866 504.683 328.883 503.409 329.456C502.135 330.03 500.46 329.22 499.101 328.347Z" fill="#3C8F7C"/>
<path d="M519.656 351.596C518.458 350.423 517.025 349.534 515.458 348.99C514.051 348.561 512.56 348.505 511.126 348.828C512.31 347.655 513.775 346.825 515.373 346.422C517.885 345.662 521.343 346.298 522.471 347.32C525.032 349.102 525.238 352.132 523.976 352.693C522.714 353.254 521.027 352.493 519.656 351.596Z" fill="#3C8F7C"/>
<path d="M530.164 342.084C528.968 340.913 527.534 340.027 525.966 339.491C524.555 339.061 523.062 339.001 521.622 339.317C522.813 338.153 524.276 337.325 525.869 336.911C528.393 336.151 531.851 336.786 532.98 337.821C535.54 339.604 535.746 342.633 534.472 343.194C533.198 343.755 531.524 342.957 530.164 342.084Z" fill="#3C8F7C"/>
<path d="M492.985 306.794C494.276 307.859 495.327 309.199 496.067 310.721C496.672 312.095 496.935 313.603 496.832 315.108C497.789 313.737 498.387 312.136 498.567 310.459C498.943 307.791 497.851 304.363 496.711 303.353C494.636 300.985 491.687 301.197 491.323 302.568C490.959 303.939 491.905 305.535 492.985 306.794Z" fill="#3C8F7C"/>
<path d="M484.504 318.163C485.22 318.549 487.707 319.26 488.969 321.179C489.925 322.499 490.448 324.097 490.462 325.742C491.499 323.931 492.083 321.883 492.16 319.783C492.342 316.642 490.522 313.288 488.921 312.665C485.96 310.945 482.162 312.478 481.858 314.174C481.555 315.869 483.023 317.215 484.504 318.163Z" fill="#3C8F7C"/>
<path d="M475.585 335.378C476.349 335.639 478.922 335.901 480.439 337.572C481.602 338.703 482.38 340.189 482.659 341.81C483.382 339.848 483.624 337.733 483.363 335.652C483.023 332.523 480.681 329.531 479.007 329.195C475.803 328.01 472.309 330.179 472.284 331.9C472.26 333.62 473.959 334.692 475.585 335.378Z" fill="#3C8F7C"/>
<path d="M501.977 347.37C503.351 347.931 504.551 348.866 505.447 350.075C506.152 351.206 506.492 352.536 506.418 353.877C507.354 352.461 507.938 350.83 508.117 349.127C508.444 346.634 507.146 343.755 505.884 343.156C503.566 341.586 500.399 342.608 500.047 343.967C499.695 345.325 500.824 346.51 501.977 347.37Z" fill="#3C8F7C"/>
<path d="M515.725 299.489C515.055 298.732 514.225 298.143 513.298 297.769C512.484 297.445 511.602 297.342 510.738 297.469C511.493 296.829 512.395 296.4 513.359 296.223C514.073 296.074 514.81 296.073 515.524 296.22C516.239 296.368 516.918 296.661 517.521 297.083C518.965 298.242 518.953 300.05 518.176 300.324C517.399 300.598 516.489 300.137 515.725 299.489Z" fill="#3C8F7C"/>
<path d="M512.533 292.172C512.704 293.166 512.663 294.187 512.412 295.163C512.161 296.02 511.702 296.797 511.077 297.42C512.029 297.2 512.908 296.727 513.625 296.048C514.178 295.559 514.629 294.96 514.952 294.287C515.275 293.615 515.464 292.883 515.506 292.134C515.506 290.252 514.099 289.155 513.407 289.641C512.715 290.127 512.533 291.199 512.533 292.172Z" fill="#3C8F7C"/>
<path d="M537.736 332.398C537.061 331.648 536.232 331.061 535.309 330.678C534.493 330.362 533.613 330.259 532.749 330.379C533.502 329.743 534.399 329.314 535.358 329.132C536.074 328.983 536.813 328.983 537.529 329.13C538.246 329.278 538.927 329.571 539.532 329.993C540.964 331.164 540.964 332.959 540.187 333.234C539.411 333.508 538.501 332.984 537.736 332.398Z" fill="#3C8F7C"/>
<path d="M533.865 325.069C534.117 326.045 534.159 327.066 533.987 328.06C533.808 328.939 533.411 329.755 532.834 330.429C533.76 330.121 534.595 329.576 535.261 328.846C536.285 327.757 536.848 326.296 536.826 324.782C536.644 322.912 535.176 321.94 534.521 322.451C533.865 322.962 533.817 324.046 533.865 325.069Z" fill="#3C8F7C"/>
<path d="M531.184 372.7C514.876 374.532 499.696 381.925 485.074 389.142C475.221 394.004 475.719 395.375 473.717 396.111C473.641 396.134 473.561 396.134 473.486 396.113C473.41 396.091 473.342 396.047 473.29 395.987C473.238 395.927 473.203 395.852 473.191 395.773C473.178 395.693 473.188 395.611 473.219 395.537C473.996 393.967 476.01 392.907 477.43 391.997C479.074 390.957 480.771 390.008 482.514 389.155C486.239 387.297 490.061 385.627 493.847 383.932C501.518 380.355 509.445 377.388 517.557 375.056C522.02 373.84 526.574 373.006 531.172 372.563C531.257 372.563 531.269 372.688 531.172 372.7H531.184Z" fill="#3C8F7C"/>
<path d="M516.489 367.514C516.943 369.018 517.071 370.604 516.866 372.164C516.631 373.534 516.063 374.82 515.215 375.904C516.628 375.363 517.882 374.457 518.856 373.273C520.506 371.441 521.404 368.225 521.04 366.841C520.664 363.924 518.297 362.503 517.315 363.351C516.332 364.198 516.344 365.993 516.489 367.514Z" fill="#3C8F7C"/>
<path d="M502.122 372.787C502.576 374.295 502.705 375.886 502.498 377.449C502.257 378.817 501.69 380.102 500.848 381.189C502.261 380.648 503.515 379.743 504.488 378.559C506.139 376.714 507.049 373.51 506.685 372.127C506.296 369.21 503.93 367.789 502.959 368.636C501.989 369.484 501.977 371.267 502.122 372.787Z" fill="#3C8F7C"/>
<path d="M487.537 379.469C487.984 380.978 488.108 382.568 487.901 384.131C487.663 385.497 487.1 386.782 486.263 387.871C487.673 387.324 488.926 386.419 489.903 385.241C491.542 383.408 492.452 380.192 492.088 378.808C491.699 375.891 489.333 374.47 488.362 375.318C487.392 376.166 487.38 377.961 487.537 379.469Z" fill="#3C8F7C"/>
<path d="M520.773 381.289C520.291 379.922 519.525 378.68 518.528 377.649C517.604 376.77 516.483 376.14 515.264 375.816C516.61 375.395 518.039 375.335 519.414 375.642C521.622 376.053 524.037 377.898 524.522 379.132C525.82 381.501 524.85 383.907 523.673 383.832C522.496 383.757 521.488 382.498 520.773 381.289Z" fill="#3C8F7C"/>
<path d="M505.836 386.724C505.351 385.356 504.581 384.114 503.579 383.084C502.66 382.204 501.543 381.574 500.327 381.252C501.671 380.822 503.102 380.762 504.477 381.077C506.685 381.488 509.1 383.333 509.585 384.555C510.883 386.936 509.913 389.329 508.723 389.267C507.534 389.205 506.551 387.933 505.836 386.724Z" fill="#3C8F7C"/>
<path d="M532.154 375.704C531.68 374.907 531.037 374.23 530.273 373.722C529.581 373.297 528.798 373.053 527.992 373.012C528.983 372.455 530.12 372.235 531.241 372.383C532.361 372.53 533.407 373.039 534.229 373.834C535.345 375.143 535.042 376.789 534.29 376.901C533.537 377.013 532.761 376.365 532.154 375.704Z" fill="#3C8F7C"/>
<path d="M530.431 368.487C530.426 369.422 530.223 370.345 529.837 371.192C529.465 371.926 528.918 372.552 528.247 373.012C529.151 372.974 530.029 372.695 530.795 372.201C531.378 371.85 531.887 371.382 532.291 370.825C532.695 370.268 532.987 369.634 533.149 368.96C533.428 367.24 532.348 366.006 531.645 366.305C530.941 366.604 530.613 367.602 530.431 368.487Z" fill="#3C8F7C"/>
<path d="M110.542 270.294C91.3819 252.767 81.529 227.549 76.6389 209.499C73.4677 197.941 71.4351 186.084 70.5718 174.109L69.5283 174.034C70.3772 186.093 72.4098 198.034 75.5954 209.673C80.5218 227.911 90.484 253.366 109.874 271.129L110.542 270.294Z" fill="#3C8F7C"/>
<path d="M72.732 169.571C73.2058 171.576 73.2834 173.658 72.9604 175.694C72.6373 177.731 71.9201 179.68 70.8512 181.426C67.4732 178.778 65.1381 174.967 64.2745 170.693C63.7972 168.69 63.7156 166.609 64.0345 164.573C64.3533 162.536 65.0662 160.587 66.131 158.838C69.5222 161.478 71.8673 165.291 72.732 169.571Z" fill="#3C8F7C"/>
<path d="M66.8592 182.411C69.9912 185.359 71.9818 189.369 72.4652 193.705C70.4456 193.734 68.4404 193.352 66.5658 192.579C64.6912 191.807 62.9844 190.66 61.5444 189.205C58.4236 186.279 56.4334 182.296 55.9385 177.986C57.9531 177.946 59.9554 178.316 61.8299 179.076C63.7043 179.835 65.4137 180.969 66.8592 182.411Z" fill="#3C8F7C"/>
<path d="M65.3178 195.911C69.3081 197.219 72.6792 200.011 74.7703 203.74C73.1273 204.768 71.2844 205.412 69.3721 205.628C67.4598 205.843 65.5248 205.624 63.704 204.986C59.7136 203.678 56.3426 200.886 54.2515 197.158C55.8945 196.13 57.7373 195.485 59.6496 195.27C61.5619 195.054 63.497 195.273 65.3178 195.911Z" fill="#3C8F7C"/>
<path d="M71.628 212.154C73.2617 212.753 74.7543 213.698 76.0087 214.929C77.2631 216.16 78.2511 217.648 78.9085 219.297C77.7044 220.376 76.2492 221.116 74.6843 221.446C73.1193 221.775 71.4979 221.684 69.9777 221.179C68.3418 220.585 66.8472 219.641 65.5922 218.41C64.3373 217.178 63.3507 215.688 62.6973 214.036C63.9025 212.96 65.3577 212.221 66.9222 211.891C68.4867 211.562 70.1075 211.652 71.628 212.154Z" fill="#3C8F7C"/>
<path d="M77.1728 188.98C78.36 187.734 79.8061 186.779 81.403 186.187C83 185.596 84.7064 185.383 86.3948 185.565C86.5062 187.373 86.2461 189.186 85.6315 190.885C85.0169 192.583 84.0616 194.13 82.8273 195.425C81.6402 196.672 80.1941 197.626 78.5972 198.218C77.0002 198.809 75.2937 199.022 73.6054 198.841C73.4971 197.032 73.7585 195.221 74.3729 193.522C74.9874 191.824 75.9411 190.277 77.1728 188.98Z" fill="#3C8F7C"/>
<path d="M80.146 200.611C81.3331 199.365 82.7796 198.412 84.3768 197.822C85.974 197.233 87.6804 197.023 89.3679 197.208C89.4638 199.016 89.1894 200.824 88.5624 202.516C87.9353 204.208 86.9696 205.746 85.7277 207.031C84.541 208.277 83.0946 209.231 81.4973 209.821C79.8999 210.41 78.1933 210.62 76.5057 210.434C76.4105 208.626 76.6853 206.818 77.3123 205.126C77.9393 203.434 78.9046 201.896 80.146 200.611Z" fill="#3C8F7C"/>
<path d="M99.0022 294.104C81.3106 291.449 66.1672 280.678 56.5327 272.114C50.3714 266.645 44.7577 260.556 39.7755 253.939L39.1445 254.313C44.1568 260.977 49.8072 267.108 56.011 272.613C65.7183 281.264 80.9951 292.147 98.9051 294.827L99.0022 294.104Z" fill="#50BFA5"/>
<path d="M39.3997 250.449C40.4232 251.425 41.2466 252.602 41.8217 253.91C42.3968 255.218 42.7119 256.631 42.7487 258.065C39.7924 257.869 37.0064 256.576 34.9101 254.425C33.8865 253.449 33.0631 252.272 32.488 250.964C31.913 249.656 31.5978 248.243 31.561 246.809C34.5173 247.005 37.3033 248.299 39.3997 250.449Z" fill="#50BFA5"/>
<path d="M40.7829 260.247C43.7045 260.721 46.36 262.266 48.2575 264.597C47.0943 265.407 45.787 265.972 44.4106 266.261C43.0341 266.55 41.6157 266.556 40.2368 266.28C37.3148 265.807 34.659 264.262 32.7622 261.93C33.9251 261.12 35.2324 260.554 36.6089 260.265C37.9854 259.976 39.404 259.97 40.7829 260.247Z" fill="#50BFA5"/>
<path d="M44.9206 268.686C47.7296 267.875 50.7319 268.169 53.3417 269.509C52.7679 270.752 51.9344 271.85 50.9004 272.725C49.8664 273.6 48.6575 274.23 47.3596 274.57C44.5511 275.387 41.5467 275.093 38.9385 273.747C39.5143 272.505 40.3485 271.408 41.3822 270.534C42.4158 269.659 43.6237 269.029 44.9206 268.686Z" fill="#50BFA5"/>
<path d="M54.6644 275.642C55.8371 275.331 57.061 275.282 58.2539 275.497C59.4468 275.712 60.5811 276.186 61.5808 276.889C61.2817 277.989 60.7113 278.992 59.9249 279.8C59.1384 280.608 58.1624 281.193 57.0912 281.501C55.9158 281.804 54.6915 281.849 53.4978 281.635C52.3041 281.42 51.1678 280.95 50.1626 280.254C50.4639 279.153 51.0364 278.15 51.825 277.342C52.6135 276.534 53.5914 275.949 54.6644 275.642Z" fill="#50BFA5"/>
<path d="M49.228 259.973C49.4533 258.781 49.9382 257.658 50.6464 256.686C51.3546 255.715 52.2677 254.92 53.3172 254.363C54.0513 255.372 54.5719 256.528 54.8456 257.756C55.1194 258.984 55.1402 260.257 54.9068 261.493C54.6832 262.686 54.199 263.81 53.4906 264.782C52.7822 265.753 51.8682 266.547 50.8176 267.103C50.0829 266.094 49.5619 264.939 49.2881 263.711C49.0143 262.483 48.9939 261.209 49.228 259.973Z" fill="#50BFA5"/>
<path d="M55.295 265.57C55.5203 264.378 56.0052 263.255 56.7134 262.283C57.4216 261.312 58.3347 260.517 59.3842 259.96C60.1166 260.968 60.6363 262.121 60.91 263.347C61.1837 264.572 61.2054 265.843 60.9738 267.078C60.7519 268.271 60.2683 269.396 59.5598 270.368C58.8512 271.34 57.9363 272.133 56.8846 272.688C56.1515 271.68 55.6314 270.527 55.3577 269.301C55.084 268.075 55.0626 266.804 55.295 265.57Z" fill="#50BFA5"/>
<path d="M109.68 348.492C89.2828 356.445 66.8104 352.231 51.5699 347.32C41.6346 344.129 32.0623 339.85 23.0183 334.555L22.5693 335.452C31.6754 340.782 41.3127 345.091 51.3151 348.305C66.7133 353.291 89.4041 357.529 110.069 349.464L109.68 348.492Z" fill="#96D9C9"/>
<path d="M20.4702 330.304C24.0229 331.71 26.9068 334.476 28.5151 338.02C26.8892 338.832 25.1148 339.281 23.3082 339.339C21.5015 339.397 19.7033 339.062 18.0313 338.357C14.4777 336.946 11.5943 334.176 9.98633 330.628C11.6122 329.816 13.3873 329.367 15.1944 329.311C17.0016 329.255 18.7997 329.594 20.4702 330.304Z" fill="#96D9C9"/>
<path d="M27.7021 342.097C29.4149 341.474 31.2353 341.226 33.0468 341.368C34.8583 341.509 36.6211 342.038 38.2224 342.919C37.5482 344.628 36.5258 346.168 35.224 347.436C33.9222 348.705 32.3711 349.673 30.675 350.274C28.9592 350.894 27.1366 351.14 25.3232 350.996C23.5098 350.853 21.7454 350.322 20.1426 349.439C20.8175 347.731 21.8417 346.191 23.1459 344.924C24.4501 343.657 26.0039 342.693 27.7021 342.097Z" fill="#96D9C9"/>
<path d="M37.0942 350.386C38.2697 349.001 39.7234 347.894 41.3551 347.141C42.9868 346.388 44.7579 346.006 46.5467 346.023C46.694 347.906 46.4689 349.8 45.885 351.591C45.3011 353.382 44.3705 355.033 43.1491 356.445C41.9724 357.828 40.5183 358.933 38.8867 359.684C37.255 360.435 35.4845 360.814 33.6966 360.795C33.5439 358.914 33.7664 357.021 34.3506 355.231C34.9348 353.441 35.8684 351.793 37.0942 350.386Z" fill="#96D9C9"/>
<path d="M50.2232 354.662C51.3999 353.279 52.854 352.174 54.4857 351.423C56.1173 350.672 57.8879 350.293 59.6757 350.312C59.8301 352.192 59.6095 354.085 59.0274 355.875C58.4453 357.664 57.5139 359.313 56.2903 360.721C55.1147 362.106 53.6611 363.213 52.0294 363.966C50.3977 364.719 48.6266 365.1 46.8378 365.084C46.6889 363.202 46.912 361.308 47.4938 359.517C48.0756 357.726 49.004 356.075 50.2232 354.662Z" fill="#96D9C9"/>
<path d="M37.8705 340.838C35.7095 338.005 34.6307 334.458 34.8369 330.865C36.4796 331.117 38.057 331.702 39.4777 332.586C40.8983 333.47 42.1338 334.635 43.1124 336.013C45.2684 338.849 46.3466 342.394 46.146 345.986C44.5025 345.737 42.9241 345.153 41.5031 344.269C40.0821 343.385 38.8471 342.218 37.8705 340.838Z" fill="#96D9C9"/>
<path d="M51.5093 345.226C49.3122 342.405 48.1829 338.863 48.3302 335.253C49.9754 335.469 51.5618 336.022 52.9956 336.878C54.4295 337.734 55.6818 338.877 56.6784 340.239C58.8756 343.06 60.0048 346.602 59.8576 350.212C58.2139 349.991 56.6294 349.436 55.1963 348.58C53.7631 347.724 52.5098 346.584 51.5093 345.226Z" fill="#96D9C9"/>
<path d="M67.4902 355.834C67.7635 355.102 68.1932 354.441 68.7475 353.902C69.3019 353.363 69.9669 352.958 70.6936 352.717C71.0339 353.458 71.2234 354.263 71.2505 355.082C71.2776 355.901 71.1418 356.716 70.8513 357.479C70.5775 358.214 70.1463 358.875 69.5896 359.414C69.0329 359.954 68.3651 360.358 67.6358 360.596C67.2968 359.854 67.109 359.049 67.0839 358.23C67.0589 357.411 67.1972 356.596 67.4902 355.834Z" fill="#96D9C9"/>
<path d="M153.448 395.961C153.448 395.961 179.452 290.327 170.824 279.718C158.909 265.046 149.08 313.712 148.121 309.574C139.009 270.544 136.582 220.593 107.254 215.37C90.5449 212.366 111.112 252.518 109.875 263.376C108.637 274.233 78.5321 238.182 60.246 219.297C41.9598 200.411 32.5074 212.366 44.0712 236.113C55.2467 259.075 91.3943 284.169 83.9439 287.148C76.4936 290.127 31.2454 260.471 25.7001 273.149C18.905 288.694 86.7712 309.848 80.3765 313.338C73.9818 316.829 41.5473 305.323 42.4331 317.215C43.3189 329.107 86.8925 328.596 86.1402 333.795C84.9268 342.259 56.0961 323.099 54.8342 334.817C53.5358 346.796 92.7654 344.615 92.0859 353.952C91.6976 359.324 83.2765 351.222 82.0389 358.664C79.2116 375.63 130.927 396.285 130.927 396.285L153.448 395.961Z" fill="#440F9E"/>
<path d="M173.275 396.609C173.275 396.609 148.509 357.641 136.618 350.274C123.938 342.433 133.597 365.919 133.597 365.919C133.597 365.919 107.666 334.218 100.458 340.663C93.2506 347.108 99.7909 354.55 99.7909 354.55C99.7909 354.55 76.5177 347.507 72.3314 356.233C65.9124 369.721 104.232 380.903 104.232 380.903C104.232 380.903 87.8388 380.74 90.7995 389.89C95.362 403.603 173.275 396.609 173.275 396.609Z" fill="#50BFA5"/>
<path d="M72.3315 356.233C76.5178 347.507 99.7911 354.538 99.7911 354.538C99.7911 354.538 93.2508 347.058 100.458 340.651C107.666 334.243 128.367 353.478 128.367 353.478C128.367 353.478 126.195 337.584 141.812 351.596C152.963 361.568 173.239 396.597 173.239 396.597L72.3315 356.233Z" fill="#96D9C9"/>
<path d="M143.231 298.753L144.348 297.981C124.205 266.629 118.053 229.419 116.439 203.715C115.343 187.437 115.794 171.087 117.786 154.899L116.415 154.488C114.399 170.778 113.94 187.233 115.044 203.615C116.67 229.531 122.87 267.078 143.231 298.753Z" fill="#96D9C9"/>
<path d="M121.815 150.012C121.815 156.308 119.74 161.518 116.342 164.635C112.704 159.796 110.702 153.87 110.639 147.756C110.639 141.523 112.726 136.263 116.124 133.134C119.763 137.971 121.762 143.899 121.815 150.012Z" fill="#96D9C9"/>
<path d="M110.894 164.161C114.136 169.245 115.643 175.292 115.177 181.351C109.772 179.503 105.196 175.715 102.291 170.681C99.048 165.597 97.5413 159.55 98.0073 153.49C103.413 155.339 107.988 159.127 110.894 164.161Z" fill="#96D9C9"/>
<path d="M105.336 181.077C110.176 184.572 113.748 189.619 115.493 195.425C111.149 196.672 105.858 195.649 100.932 192.122C96.0993 188.614 92.5292 183.566 90.7754 177.761C95.1194 176.527 100.398 177.549 105.336 181.077Z" fill="#96D9C9"/>
<path d="M111.792 210.596C113.908 211.926 115.538 213.938 116.427 216.318C115.401 216.65 114.316 216.742 113.252 216.586C112.187 216.431 111.17 216.032 110.275 215.42C108.152 214.097 106.521 212.083 105.64 209.698C106.665 209.367 107.75 209.276 108.815 209.431C109.879 209.586 110.896 209.984 111.792 210.596Z" fill="#96D9C9"/>
<path d="M113.539 221.528C115.662 222.852 117.293 224.865 118.174 227.25C117.149 227.581 116.064 227.673 114.999 227.517C113.935 227.362 112.918 226.964 112.022 226.353C109.903 225.031 108.272 223.022 107.387 220.643C108.411 220.306 109.497 220.21 110.562 220.363C111.627 220.516 112.645 220.915 113.539 221.528Z" fill="#96D9C9"/>
<path d="M122.434 177.263C124.381 176.16 126.556 175.551 128.778 175.486C131 175.421 133.206 175.902 135.211 176.889C134.927 179.195 134.135 181.405 132.895 183.349C131.654 185.293 129.998 186.921 128.052 188.108C126.104 189.207 123.929 189.815 121.707 189.88C119.485 189.945 117.28 189.466 115.274 188.482C115.56 186.176 116.354 183.967 117.594 182.024C118.834 180.08 120.489 178.451 122.434 177.263Z" fill="#96D9C9"/>
<path d="M123.234 193.742C125.179 192.64 127.352 192.031 129.573 191.966C131.793 191.9 133.997 192.381 135.999 193.368C135.72 195.676 134.929 197.887 133.688 199.832C132.447 201.777 130.789 203.403 128.84 204.587C126.895 205.69 124.722 206.299 122.502 206.364C120.281 206.429 118.078 205.948 116.075 204.961C116.355 202.654 117.146 200.443 118.387 198.498C119.628 196.553 121.286 194.926 123.234 193.742Z" fill="#96D9C9"/>
<path d="M122.446 217.315C123.713 216.599 125.128 216.204 126.574 216.163C128.019 216.121 129.454 216.435 130.758 217.078C130.571 218.579 130.055 220.017 129.248 221.282C128.44 222.548 127.363 223.608 126.098 224.383C124.831 225.099 123.416 225.494 121.97 225.535C120.524 225.576 119.09 225.263 117.786 224.62C117.972 223.119 118.489 221.681 119.296 220.415C120.103 219.15 121.18 218.09 122.446 217.315Z" fill="#96D9C9"/>
<path d="M406.712 310.272C407.6 310.317 408.462 310.601 409.211 311.094C410.779 310.476 412.31 309.764 413.798 308.963C413.798 308.963 426.296 302.63 426.963 302.256L435.979 290.601L442.932 293.892C442.932 293.892 432.788 306.283 432.145 306.831C431.502 307.38 413.579 313.837 412.026 314.46C412.026 314.46 410.449 315.931 409.442 316.829C408.608 317.434 407.697 317.921 406.736 318.275C405.862 318.722 404.937 319.053 403.981 319.26C402.622 319.571 403.751 318.611 403.751 318.611C403.751 318.611 406.178 317.564 406.056 317.365C405.935 317.165 404.673 317.876 403.168 318.225L402.052 318.487C401.118 318.699 400.717 318.15 401.652 317.776C402.068 317.595 402.498 317.449 402.938 317.34C403.354 317.214 403.759 317.056 404.151 316.866C404.565 316.721 404.97 316.55 405.365 316.355C405.365 316.355 405.425 316.168 405.013 316.243C404.272 316.499 403.519 316.715 402.756 316.891C402.331 316.891 401.457 317.103 401.457 317.103C401.457 317.103 399.904 317.253 399.904 317.028C399.904 316.542 400.826 316.268 401.421 316.28C401.837 316.123 402.268 316.01 402.707 315.944C402.707 315.944 404.515 315.221 404.406 314.946C403.639 314.926 402.871 314.976 402.113 315.096C400.899 315.183 400.001 315.183 399.941 314.946C399.88 314.71 400.802 314.41 400.802 314.41C400.802 314.41 401.664 314.286 401.943 314.211C402.222 314.136 403.241 313.824 403.241 313.824C403.241 313.824 406.542 312.578 406.432 312.329C406.323 312.079 405.765 311.556 405.522 311.556C405.28 311.556 404.879 311.793 404.649 311.793C404.418 311.793 403.909 311.793 403.872 311.456C403.836 311.119 405.086 310.521 405.086 310.521C405.602 310.312 406.158 310.226 406.712 310.272Z" fill="#F8A492"/>
<path d="M429.706 297.818C429.706 297.818 431.951 299.925 432.885 300.611C433.82 301.296 437.46 303.104 437.46 303.104C437.46 303.104 441.233 297.17 442.884 294.191C444.886 290.576 446.269 285.216 445.796 285.066C444.215 284.505 442.49 284.554 440.942 285.203C435.118 287.921 429.706 297.818 429.706 297.818Z" fill="#355389"/>
<path d="M408.896 313.376C408.442 313.508 407.959 313.483 407.52 313.305C407.082 313.127 406.712 312.806 406.469 312.391C406.336 313.513 407.974 314.061 408.896 313.376Z" fill="#FE875E"/>
<path d="M129.204 271.74C129.411 268.274 128.777 264.809 127.36 261.655C126.625 260.314 125.55 259.201 124.248 258.437C122.947 257.674 121.469 257.286 119.97 257.317C110.724 257.317 109.547 269.895 103.674 274.769C101.878 276.253 99.8639 277.462 98.1651 279.058C91.8918 284.966 94.719 295.911 100.483 301.097C104.475 304.687 110.772 306.731 115.699 303.927C118.24 302.354 120.294 300.071 121.62 297.345C123.462 293.395 125.019 289.312 126.28 285.128C127.905 280.842 128.891 276.329 129.204 271.74Z" fill="#13375B"/>
<path d="M130.721 288.482C127.833 279.481 124.023 279.631 124.023 279.631L127.105 298.778C128.877 298.28 131.206 297.158 132.978 296.647C132.364 293.887 131.611 291.161 130.721 288.482Z" fill="#F7CC7F"/>
<path d="M145.306 319.147L134.749 310.883C134.749 310.883 133.694 303.166 132.322 296.323C130.539 296.846 128.925 298.28 127.153 298.816L129.835 314.136L143.656 321.429L147.563 326.589L148.449 321.291L145.306 319.147Z" fill="#F48C7F"/>
<path d="M241.469 306.233C244.631 306.241 247.735 307.101 250.473 308.726C250.825 308.929 251.189 309.108 251.565 309.262C253.452 310.031 255.494 310.312 257.512 310.081C259.53 309.851 261.463 309.115 263.139 307.939C264.816 306.762 266.187 305.181 267.13 303.334C268.074 301.487 268.562 299.431 268.552 297.345V253.017H225.44C223.409 253.027 221.407 252.525 219.61 251.556C217.812 250.586 216.273 249.178 215.128 247.456C213.983 245.733 213.267 243.748 213.042 241.675C212.817 239.602 213.091 237.504 213.84 235.565C213.989 235.179 214.163 234.804 214.361 234.443C215.943 231.63 216.78 228.441 216.788 225.193C216.857 220.214 214.998 215.411 211.62 211.84C208.242 208.269 203.622 206.223 198.775 206.152C193.928 206.081 189.253 207.99 185.777 211.461C182.301 214.931 180.309 219.678 180.24 224.657C180.14 227.989 180.916 231.288 182.485 234.206C182.667 234.567 182.837 234.941 183.007 235.353C183.748 237.324 184.009 239.45 183.768 241.549C183.527 243.647 182.791 245.653 181.624 247.392C180.457 249.132 178.894 250.552 177.071 251.53C175.248 252.508 173.22 253.014 171.164 253.004H128.379V353.902C128.377 359.564 129.462 365.171 131.571 370.403C133.68 375.634 136.771 380.387 140.669 384.391C144.567 388.394 149.195 391.569 154.288 393.734C159.381 395.899 164.839 397.012 170.351 397.008H268.565V352.867C268.573 350.772 268.081 348.707 267.134 346.851C266.187 344.996 264.812 343.407 263.129 342.223C261.446 341.039 259.507 340.296 257.481 340.059C255.455 339.822 253.403 340.098 251.504 340.863C251.129 341.016 250.764 341.195 250.412 341.399C247.975 342.796 245.258 343.602 242.47 343.753C239.683 343.905 236.899 343.398 234.332 342.273C231.764 341.147 229.482 339.432 227.66 337.26C225.838 335.087 224.525 332.515 223.821 329.74C223.118 326.965 223.042 324.061 223.6 321.251C224.159 318.442 225.336 315.801 227.042 313.531C228.748 311.261 230.938 309.424 233.443 308.159C235.948 306.893 238.702 306.235 241.493 306.233H241.469Z" fill="#26389A"/>
<path d="M334.89 281.675C335.026 278.431 335.988 275.28 337.681 272.538C337.893 272.189 338.083 271.827 338.251 271.453C339.087 269.553 339.456 267.47 339.325 265.389C339.195 263.308 338.569 261.291 337.503 259.516C336.437 257.741 334.963 256.263 333.21 255.21C331.457 254.157 329.48 253.562 327.452 253.478L284.412 251.409L282.398 295.637C282.313 297.72 281.732 299.749 280.706 301.548C279.681 303.347 278.242 304.86 276.515 305.955C274.788 307.05 272.826 307.693 270.802 307.828C268.777 307.964 266.75 307.587 264.9 306.731C264.534 306.552 264.177 306.353 263.832 306.133C261.138 304.392 258.047 303.404 254.866 303.267C251.686 303.13 248.525 303.849 245.699 305.353C242.872 306.857 240.476 309.094 238.75 311.841C237.023 314.589 236.025 317.752 235.854 321.018C235.684 324.284 236.347 327.539 237.777 330.46C239.208 333.382 241.357 335.869 244.011 337.675C246.665 339.481 249.732 340.544 252.908 340.757C256.085 340.971 259.261 340.328 262.121 338.893C262.489 338.712 262.866 338.549 263.25 338.407C265.201 337.738 267.281 337.569 269.31 337.915C271.339 338.26 273.255 339.109 274.892 340.387C276.529 341.666 277.838 343.336 278.704 345.253C279.57 347.169 279.967 349.274 279.862 351.384L277.872 395.238L375.976 399.95C387.088 400.482 397.951 396.457 406.174 388.761C414.398 381.065 419.31 370.329 419.829 358.913L424.415 258.128L381.485 256.071C379.447 255.961 377.415 256.366 375.565 257.25C373.715 258.134 372.104 259.47 370.874 261.142C369.643 262.814 368.83 264.77 368.505 266.839C368.18 268.908 368.354 271.027 369.011 273.012C369.14 273.404 369.294 273.787 369.472 274.159C370.723 276.726 371.383 279.554 371.403 282.426C371.423 285.297 370.802 288.134 369.587 290.72C368.372 293.306 366.596 295.571 364.395 297.341C362.194 299.111 359.628 300.339 356.893 300.93C354.158 301.521 351.328 301.46 348.619 300.752C345.911 300.043 343.397 298.705 341.27 296.842C339.144 294.979 337.462 292.639 336.354 290.003C335.246 287.368 334.741 284.506 334.878 281.638L334.89 281.675Z" fill="#5D29A3"/>
<path d="M214.92 212.029C215.078 215.269 214.413 218.495 212.991 221.391C212.813 221.763 212.659 222.146 212.529 222.538C211.877 224.511 211.706 226.619 212.032 228.676C212.357 230.733 213.168 232.677 214.395 234.336C215.621 235.996 217.225 237.322 219.066 238.197C220.907 239.071 222.929 239.469 224.955 239.354L268.007 237.135L265.847 192.932C265.735 190.85 266.123 188.771 266.975 186.878C267.827 184.985 269.118 183.336 270.735 182.075C272.352 180.814 274.245 179.979 276.249 179.644C278.252 179.31 280.305 179.485 282.228 180.155C282.604 180.297 282.972 180.459 283.332 180.641C286.176 182.106 289.344 182.782 292.521 182.603C295.698 182.424 298.774 181.396 301.446 179.621C304.118 177.846 306.292 175.385 307.753 172.481C309.215 169.578 309.913 166.332 309.779 163.067C309.645 159.801 308.683 156.628 306.989 153.861C305.294 151.094 302.926 148.83 300.118 147.292C297.311 145.754 294.161 144.996 290.98 145.093C287.8 145.19 284.699 146.138 281.985 147.843C281.638 148.063 281.278 148.259 280.905 148.429C279.029 149.289 276.978 149.666 274.928 149.528C272.878 149.389 270.892 148.739 269.142 147.634C267.392 146.529 265.931 145.002 264.885 143.185C263.84 141.369 263.241 139.318 263.141 137.21L260.993 93.3682L162.913 98.4293C157.41 98.7135 152.016 100.109 147.039 102.535C142.061 104.961 137.598 108.371 133.903 112.569C130.208 116.768 127.355 121.673 125.505 127.004C123.656 132.336 122.847 137.99 123.125 143.642L128.052 244.403L170.958 242.184C172.993 242.086 174.973 241.479 176.727 240.415C178.48 239.35 179.954 237.861 181.019 236.077C182.084 234.294 182.708 232.269 182.837 230.181C182.965 228.093 182.595 226.004 181.757 224.096C181.587 223.72 181.396 223.354 181.187 222.999C179.336 219.995 178.363 216.508 178.384 212.952C178.326 208.009 180.167 203.243 183.509 199.686C186.85 196.13 191.422 194.071 196.232 193.956C201.042 193.841 205.702 195.68 209.201 199.073C212.699 202.466 214.755 207.139 214.92 212.079V212.029Z" fill="#B98FFF"/>
<path d="M303.026 187.622C299.86 187.61 296.753 186.751 294.01 185.128C293.661 184.928 293.3 184.749 292.93 184.592C291.042 183.827 289.001 183.548 286.984 183.78C284.967 184.012 283.037 184.748 281.361 185.924C279.685 187.1 278.314 188.679 277.37 190.525C276.425 192.37 275.935 194.425 275.942 196.51V240.788H319.055C321.085 240.778 323.087 241.279 324.885 242.249C326.683 243.218 328.222 244.626 329.367 246.349C330.512 248.071 331.228 250.056 331.453 252.129C331.677 254.203 331.403 256.301 330.655 258.24C330.504 258.623 330.326 258.994 330.121 259.349C328.554 262.195 327.737 265.413 327.752 268.683C327.767 271.953 328.613 275.162 330.206 277.993C331.8 280.824 334.086 283.178 336.837 284.822C339.589 286.467 342.71 287.344 345.894 287.368C349.077 287.391 352.21 286.56 354.985 284.957C357.759 283.354 360.078 281.034 361.711 278.227C363.344 275.42 364.235 272.223 364.296 268.954C364.357 265.684 363.586 262.455 362.058 259.586C361.86 259.22 361.686 258.841 361.536 258.452C360.793 256.48 360.53 254.352 360.77 252.252C361.009 250.152 361.745 248.145 362.912 246.403C364.08 244.662 365.644 243.241 367.468 242.262C369.292 241.283 371.321 240.777 373.379 240.788H416.104V139.953C416.107 128.531 411.695 117.576 403.838 109.495C395.981 101.414 385.322 96.8685 374.204 96.8586H275.918V140.987C275.9 143.09 276.385 145.164 277.331 147.029C278.276 148.894 279.653 150.492 281.34 151.682C283.027 152.872 284.973 153.619 287.006 153.856C289.04 154.093 291.099 153.813 293.003 153.042C293.377 152.885 293.742 152.706 294.095 152.506C297.113 150.764 300.552 149.942 304.008 150.137C308.771 150.389 313.249 152.544 316.486 156.141C319.723 159.738 321.464 164.493 321.335 169.391C321.207 174.288 319.22 178.94 315.799 182.353C312.379 185.766 307.794 187.67 303.026 187.659V187.622Z" fill="#440F9E"/>
<path d="M100.325 383.009C100.325 383.009 99.682 387.659 98.5536 389.155C97.9795 389.777 97.4749 390.462 97.0489 391.199C96.777 391.955 96.6541 392.758 96.6875 393.563C96.7208 394.367 96.9097 395.157 97.2431 395.886C97.51 396.485 97.2431 396.485 97.8376 396.672C98.7067 396.934 99.6391 396.86 100.459 396.466C101.28 396.071 101.931 395.381 102.291 394.528C102.819 393.273 103.115 391.929 103.165 390.563C103.171 388.352 103.674 386.173 104.633 384.193L100.325 383.009Z" fill="#F7A491"/>
<path d="M119.921 385.128C120.124 387.437 120.149 389.759 119.994 392.072C119.824 392.994 118.781 394.864 119.29 395.724C119.488 396.179 119.825 396.555 120.249 396.796L131.813 396.996C132.444 396.996 132.031 396.584 131.522 396.198C130.214 395.268 128.82 394.475 127.36 393.829C127.19 393.742 126.559 393.331 126.328 393.194C125.716 392.767 125.162 392.26 124.678 391.685C123.841 390.725 123.768 386.113 123.768 386.113L119.921 385.128Z" fill="#F7A491"/>
<path d="M128.961 315.458C128.961 315.458 130.418 323.959 129.459 329.544C128.5 335.128 123.914 386.886 123.914 386.886L118.817 387.173C118.817 387.173 117.737 365.57 117.932 362.565C118.271 359.843 118.843 357.157 119.642 354.538L119.133 337.086L125.564 314.161L128.961 315.458Z" fill="#355389"/>
<path d="M113.964 313.662C113.964 313.662 109.947 319.895 109.001 325.031C108.054 330.167 109.692 346.011 107.86 352.767C106.865 356.42 103.091 362.067 102.521 366.779C101.951 371.491 99.6938 383.869 99.6938 383.869L104.827 384.904L116.67 354.014L125.964 326.103L128.391 311.718L113.964 313.662Z" fill="#466EB6"/>
<path d="M117.216 278.26C117.216 278.26 111.901 277.911 109.802 280.267C107.703 282.623 114.461 301.296 114.85 304.301C115.238 307.305 112.896 315.295 112.896 315.295C112.896 315.295 125.382 317.888 128.962 315.458C128.962 315.458 129.338 293.854 128.962 291.698C128.585 289.541 125.321 280.828 124.618 279.968C123.914 279.107 117.216 278.26 117.216 278.26Z" fill="#F7CC7F"/>
<path d="M118.987 270.942C118.987 270.942 118.987 271.104 118.915 271.379C118.513 273.719 117.92 276.021 117.143 278.26C116.403 279.706 119.691 284.331 122.87 283.77C123.817 283.595 122.07 279.519 122.154 279.083C122.312 278.26 122.531 277.125 122.761 275.966C122.883 275.318 123.004 274.657 123.125 274.034L123.744 270.818L118.987 270.942Z" fill="#F7A491"/>
<path d="M118.915 271.379C118.915 271.104 118.987 270.942 118.987 270.942L123.744 270.818L123.125 274.034C123.004 274.657 122.883 275.28 122.761 275.966C121.908 275.809 121.119 275.397 120.492 274.782C119.702 274.077 119.107 273.169 118.769 272.152L118.915 271.379Z" fill="#F47458"/>
<path d="M122.191 259.811C121.503 259.76 120.813 259.879 120.18 260.159C119.546 260.439 118.988 260.871 118.55 261.419C117.155 263.288 115.638 269.073 119.121 272.214C122.603 275.355 126.062 271.803 126.571 268.025C127.081 264.248 127.275 259.673 122.191 259.811Z" fill="#F7A491"/>
<path d="M127.59 267.976C127.178 268.798 126.474 269.222 126.037 268.998C125.6 268.773 125.564 267.851 126.037 267.016C126.51 266.181 127.154 265.769 127.603 265.981C128.051 266.193 128.015 267.14 127.59 267.976Z" fill="#F7A491"/>
<path d="M122.445 259.187C122.445 259.187 119.448 264.697 117.3 264.946C115.153 265.196 114.874 268.125 114.874 268.125C114.874 268.125 115.638 261.394 117.749 260.085C119.187 259.296 120.827 258.982 122.445 259.187Z" fill="#13375B"/>
<path d="M102.643 393.63C101.576 393.802 100.484 393.66 99.4932 393.218C98.5027 392.777 97.6549 392.055 97.0487 391.137C96.288 392.575 96.1009 394.26 96.5269 395.836C96.9759 396.871 98.3107 396.834 99.3663 396.884C99.8916 396.894 100.409 396.749 100.856 396.466C101.304 396.183 101.663 395.774 101.89 395.288C102.196 394.763 102.448 394.208 102.643 393.63Z" fill="#F47458"/>
<path d="M126.329 393.181C124.162 393.825 121.851 393.733 119.74 392.919C119.326 393.799 119.146 394.775 119.218 395.749C119.497 396.597 119.897 396.784 120.249 396.796C123.04 396.871 130.478 396.971 132.614 397.008C132.682 397.008 132.748 396.989 132.805 396.951C132.862 396.914 132.907 396.86 132.935 396.797C132.963 396.734 132.973 396.664 132.964 396.595C132.954 396.527 132.925 396.462 132.881 396.41C132.359 395.762 126.559 393.331 126.329 393.181Z" fill="#F47458"/>
<path d="M117.871 266.33C118.041 267.302 117.689 268.2 117.082 268.337C116.475 268.474 115.869 267.776 115.675 266.791C115.48 265.806 115.844 264.921 116.451 264.797C117.058 264.672 117.689 265.358 117.871 266.33Z" fill="#F7A491"/>
<path d="M121.365 269.708L124.071 269.845C124.018 270.151 123.855 270.426 123.615 270.615C123.375 270.804 123.075 270.894 122.773 270.868C121.317 270.843 121.365 269.708 121.365 269.708Z" fill="white"/>
<path d="M351.89 48.2548C352.23 48.2548 353.103 48.5914 354.499 51.2092C356.222 54.55 358.733 64.6597 358.733 64.6597L351.222 67.5268L350.264 65.4201L348.662 49.2147C348.662 49.2147 351.793 48.2548 351.89 48.2548Z" fill="#DD513A"/>
<path d="M341.952 46.7963C345.306 46.9124 348.638 47.4014 351.89 48.2548C351.89 48.2548 353.698 64.2732 350.264 76.4273C349.487 79.1573 350.895 87.7213 350.895 87.7213L328.628 87.4221C328.628 87.4221 331.262 66.7165 330.267 63.3632C329.272 60.01 329.247 48.4044 329.247 48.4044L334.259 47.5193C336.802 47.079 339.373 46.8373 341.952 46.7963Z" fill="#F47458"/>
<path d="M339.355 117.44C339.355 117.44 339.853 123.273 340.763 124.919C341.673 126.564 340.763 129.282 340.666 129.668C340.568 130.055 338.76 130.578 335.812 130.254C332.863 129.93 332.9 129.232 333.142 128.098C333.385 126.963 334.95 125.517 335.047 124.433C334.894 122.746 334.594 121.078 334.15 119.447L339.355 117.44Z" fill="#F7A491"/>
<path d="M348.383 82.897C348.383 82.897 363.757 82.0244 367.191 84.1436C370.625 86.2628 364.764 96.7589 364.764 96.7589C364.764 96.7589 354.062 96.2603 333.118 97.4944C328.156 97.7936 327.719 84.2059 328.653 83.084C329.587 81.9621 348.383 82.897 348.383 82.897Z" fill="#E0973F"/>
<path d="M335.436 130.691C332.39 130.354 332.766 128.821 333.009 127.649C333.417 126.778 333.94 125.968 334.562 125.243C335.153 125.739 335.846 126.089 336.589 126.265C337.972 126.677 339.853 125.854 341.042 125.343C341.351 126.656 341.486 128.006 341.442 129.357C341.442 129.756 338.482 131.015 335.436 130.691Z" fill="#DD513A"/>
<path d="M337.111 94.2034C337.729 98.9778 340.751 122.737 340.751 122.737L333.701 123.635C333.701 123.635 325.025 92.6203 325.462 87.8709C325.899 83.1214 329.163 82.7225 329.163 82.7225C329.163 82.7225 335.485 81.5632 337.111 94.2034Z" fill="#F7CC7F"/>
<path d="M329.017 50.1496C331.092 49.3393 332.111 68.6113 332.39 76.552C336.296 76.7693 340.211 76.7276 344.112 76.4273C344.864 76.365 346.599 75.7168 347.34 75.6171C347.948 75.5077 348.568 75.4784 349.184 75.5298C350.663 76.0911 352.103 76.7576 353.492 77.5243C353.904 77.9606 355.008 79.0701 354.814 79.5437C354.62 80.0174 352.703 78.2099 352.703 78.2099L351.756 77.6739C352.97 78.8457 355.178 80.4039 354.851 80.9648C354.523 81.5258 352.509 79.9427 351.065 78.8706C352.278 80.0175 353.843 82.0743 353.492 82.3984C353.14 82.7225 351.417 80.3042 349.548 79.6186C348.856 79.3568 348.165 80.0673 347.619 80.1546C347.158 80.2661 346.681 80.2915 346.211 80.2294L344.185 79.6435C343.505 79.6435 343.481 80.1297 342.789 80.2792C342.098 80.4288 340.654 80.6407 339.622 80.9025C333.701 82.3859 331.723 83.0715 329.915 83.0715C324.455 83.0715 324.091 52.0693 329.017 50.1496Z" fill="#F7A491"/>
<path d="M325.061 68.2747C324.673 60.1471 324.721 50.1371 329.162 48.4293C330.91 47.7562 334.016 51.8075 333.433 68.3745C330.65 68.7136 327.836 68.68 325.061 68.2747Z" fill="#DD513A"/>
<path d="M359.996 122.426C359.826 122.99 359.782 123.587 359.866 124.171C359.95 124.756 360.16 125.314 360.481 125.804C361.585 127.138 366.16 128.459 366.766 129.182C367.104 129.547 367.302 130.025 367.325 130.529L354.462 130.167L354.608 126.178L355.19 123.311L359.996 122.426Z" fill="#F7A491"/>
<path d="M361.282 126.465C361.282 126.465 357.981 127.836 356.428 127.026C354.875 126.215 354.887 125.991 354.426 126.29C353.965 126.589 353.795 130.342 353.795 130.342L368.247 130.778C369.254 130.778 369.763 129.993 368.95 129.332C368.445 128.977 367.919 128.656 367.373 128.372C365.388 127.592 363.353 126.955 361.282 126.465Z" fill="#DD513A"/>
<path d="M359.51 86.6367C360.505 84.4926 362.762 81.6504 366.79 83.3832C370.576 84.9913 371.644 88.9429 370.431 92.9818C369.217 97.0207 361.366 120.793 361.087 124.059H354.802C354.802 124.059 355.942 105.236 356.221 100.686C356.557 95.8485 357.668 91.1016 359.51 86.6367Z" fill="#F7CC7F"/>
<path d="M369.715 64.7469H348.723C348.459 64.7588 348.204 64.8486 347.989 65.0056C347.774 65.1626 347.607 65.3801 347.509 65.632L341.03 81.8998H329.308C329.231 81.8997 329.154 81.9156 329.082 81.9465C329.011 81.9773 328.946 82.0225 328.892 82.0794C328.838 82.1363 328.795 82.2037 328.767 82.2778C328.738 82.3518 328.724 82.431 328.726 82.5106C328.726 82.6693 328.787 82.8215 328.896 82.9337C329.006 83.0459 329.154 83.1089 329.308 83.1089H362.301C362.744 83.1083 363.178 82.9763 363.551 82.7287C363.923 82.481 364.218 82.1283 364.4 81.7128L370.916 66.7539C371.013 66.5424 371.057 66.3094 371.044 66.076C371.031 65.8427 370.962 65.6162 370.843 65.4171C370.724 65.218 370.558 65.0525 370.361 64.9355C370.164 64.8185 369.942 64.7537 369.715 64.7469Z" fill="black"/>
<path d="M358.43 74.2209C358.365 74.4571 358.233 74.6682 358.052 74.828C357.87 74.9877 357.647 75.0888 357.41 75.1187C357.173 75.1486 356.932 75.1059 356.719 74.996C356.505 74.8861 356.328 74.7138 356.209 74.5008C356.091 74.2878 356.036 74.0436 356.052 73.7987C356.067 73.5538 356.153 73.3191 356.298 73.1242C356.443 72.9292 356.641 72.7826 356.867 72.7027C357.093 72.6228 357.337 72.6132 357.568 72.6751C357.725 72.717 357.871 72.7904 357.999 72.8912C358.128 72.992 358.235 73.118 358.315 73.262C358.396 73.406 358.447 73.5649 358.467 73.7296C358.486 73.8942 358.474 74.0613 358.43 74.2209Z" fill="white"/>
<path d="M346.951 27.2501C346.32 27.0301 345.7 26.7763 345.094 26.4897C344.424 26.1221 343.711 25.8455 342.971 25.6669C342.213 25.5171 341.433 25.5446 340.687 25.7475C339.941 25.9504 339.249 26.3234 338.663 26.8387C337.28 28.3844 334.817 27.1254 335.314 35.2157C335.873 44.378 340.835 43.3682 340.957 43.2186L345.374 37.3598C345.374 37.3598 346.878 40.738 346.878 40.6133C346.878 40.4887 354.559 29.8803 346.951 27.2501Z" fill="#0E2E35"/>
<path d="M343.19 43.8918L343.614 47.1703C343.614 47.1703 344.573 51.8823 343.335 52.7923C342.098 53.7023 338.093 47.0332 338.093 47.0332L338.518 38.7435L343.19 43.8918Z" fill="#F7A491"/>
<path d="M338.384 41.4236C338.851 42.6147 339.551 43.6949 340.44 44.5975C341.329 45.5001 342.389 46.206 343.553 46.6716L343.189 43.8918L338.518 38.7435L338.384 41.4236Z" fill="#F47458"/>
<path d="M342.935 29.7058C343.545 29.6173 344.167 29.6659 344.757 29.8482C345.347 30.0305 345.891 30.3422 346.353 30.7617C346.814 31.1813 347.182 31.6987 347.429 32.2783C347.677 32.8578 347.8 33.4857 347.788 34.1187C347.783 35.5361 347.69 36.9518 347.509 38.357C346.939 42.0967 344.427 45.4749 342.765 45.1758C341.103 44.8766 336.928 41.6106 337.669 36.2379C338.081 32.8721 340.229 30.167 342.935 29.7058Z" fill="#F7A491"/>
<path d="M338.785 36.8362C338.698 37.0497 338.555 37.2341 338.371 37.3687C338.188 37.5033 337.972 37.5829 337.747 37.5984C337.522 37.6139 337.297 37.5648 337.098 37.4566C336.899 37.3483 336.733 37.1853 336.619 36.9856C336.505 36.786 336.447 36.5577 336.452 36.3262C336.458 36.0948 336.525 35.8694 336.648 35.6753C336.771 35.4812 336.944 35.3261 337.148 35.2273C337.351 35.1285 337.578 35.0899 337.802 35.1159C337.977 35.1624 338.141 35.2437 338.284 35.3554C338.428 35.467 338.549 35.6068 338.641 35.7666C338.732 35.9264 338.792 36.1031 338.817 36.2866C338.841 36.4702 338.83 36.6569 338.785 36.8362Z" fill="#F7A491"/>
<path d="M337.802 35.1159C337.802 35.1159 339.816 35.6395 340.557 34.3057C341.297 32.9718 343.966 30.1172 347.352 31.3014C350.737 32.4857 344.403 28.3844 344.136 28.3844H340.617C340.617 28.3844 338.118 30.5036 338.02 30.7405C337.923 30.9773 337.208 33.5079 337.208 33.5079L337.802 35.1159Z" fill="#0E2E35"/>
<path d="M341.515 40.6507L345.155 41.3737C345.034 41.7877 344.762 42.1378 344.396 42.3513C344.03 42.5648 343.598 42.6255 343.189 42.5206C341.236 42.184 341.515 40.6507 341.515 40.6507Z" fill="white"/>
<path d="M279.752 301.808C279.834 302.156 279.969 302.488 280.153 302.792C281.269 304.636 282.54 306.375 283.951 307.991L286.001 303.241C286.001 303.241 285.674 301.745 285.091 299.614C283.101 300.137 281.221 300.449 279.752 301.808Z" fill="#F8A492"/>
<path d="M291.535 297.644C291.535 297.644 280.068 302.718 279.704 302.63C279.34 302.543 274.996 294.889 274.947 287.671C274.947 284.343 278.296 280.329 282.058 281.127C283.951 281.526 283.926 282.062 286.717 286.25C289.508 290.439 291.535 297.644 291.535 297.644Z" fill="#13375B"/>
<path d="M301.315 388.644L301.048 393.281C300.834 394.126 300.668 394.984 300.55 395.849C300.55 397.856 309.821 394.141 307.746 393.256C307.552 393.181 306.532 392.57 306.532 391.885C306.435 390.838 306.193 388.706 306.193 388.706L301.315 388.644Z" fill="#F7A491"/>
<path d="M307.722 393.181C307.722 393.181 305.537 393.805 304.433 393.954C303.329 394.104 301.849 392.82 301.06 393.169C300.271 393.518 300.223 397.008 300.223 397.008C300.223 397.008 311.896 397.993 315.172 397.008C316.47 396.572 312.163 394.615 307.722 393.181Z" fill="#DD513A"/>
<path d="M282.361 388.644L282.082 393.281C281.878 394.128 281.716 394.985 281.597 395.849C281.597 397.856 290.855 394.141 288.78 393.256C288.598 393.181 287.312 392.109 287.251 391.436C287.206 390.527 287.206 389.615 287.251 388.706L282.361 388.644Z" fill="#F7A491"/>
<path d="M288.756 393.181C287.673 393.496 286.576 393.754 285.467 393.954C284.351 394.104 282.883 392.82 282.094 393.169C281.305 393.518 281.196 397.008 281.196 397.008C281.196 397.008 292.918 398.155 296.218 397.008C297.492 396.51 293.209 394.615 288.756 393.181Z" fill="#DD513A"/>
<path d="M285.188 304.363L293.355 292.62L293.573 291.985C293.986 290.825 294.787 288.394 295.587 285.976C295.818 285.141 296.315 283.67 296.801 282.236C297.286 280.803 298.014 278.684 298.014 278.347C298.014 278.347 297.954 278.185 297.905 278.048C297.545 276.897 297.261 275.723 297.056 274.533C296.959 273.996 296.874 272.725 297.48 272.725C298.439 272.725 297.978 273.972 298.427 274.794C298.703 273.925 298.926 273.038 299.094 272.139L299.252 269.646C299.252 269.459 299.082 268.088 299.762 268.088C300.368 268.088 300.356 269.596 300.599 272.077C300.692 271.766 300.764 271.45 300.817 271.129C300.864 270.71 300.932 270.294 301.023 269.883C300.902 269.197 301.023 268.1 301.691 268.212C302.055 268.212 302.018 269.783 302.018 269.783C302.018 269.983 302.018 271.591 302.018 271.915C302.091 271.366 302.382 269.073 302.941 269.073C303.499 269.073 303.438 269.696 303.438 270.182C303.438 270.469 303.135 272.962 303.123 273.249C303.341 272.875 303.596 270.681 303.814 270.681C304.724 270.681 304.397 273.797 304.057 274.607C304.057 274.695 304.057 274.857 303.96 275.044C303.827 275.859 303.564 276.646 303.183 277.375C302.613 278.372 301.824 279.968 301.703 280.204C301.618 280.703 301.339 282.498 300.999 284.742C300.854 285.714 300.696 286.761 300.526 287.858C300.526 288.095 300.32 288.843 299.677 291.673C299.414 293.058 299.078 294.427 298.669 295.774C298.281 296.472 289.484 308.751 289.108 309.274L288.889 309.586L285.188 304.363Z" fill="#F7A491"/>
<path d="M300.368 276.976C300.368 276.976 299.713 275.231 298.536 275.231C298.74 275.164 298.957 275.149 299.168 275.186C299.379 275.223 299.578 275.311 299.75 275.443C300.125 275.863 300.345 276.406 300.368 276.976Z" fill="#F47458"/>
<path d="M283.198 273.61L282.143 280.429C282.143 280.429 286.147 283.732 288.477 283.034C290.442 282.461 289.095 279.83 289.095 279.83C288.559 278.031 288.317 276.152 288.379 274.271C288.719 272.363 283.198 273.61 283.198 273.61Z" fill="#F7A491"/>
<path d="M283.975 275.667C285.414 276.328 286.939 276.773 288.501 276.988C288.333 276.093 288.3 275.176 288.404 274.271C288.55 273.386 287.458 273.174 286.232 273.211C284.643 273.348 283.223 273.61 283.223 273.61L283.017 274.857C283.283 275.187 283.608 275.462 283.975 275.667Z" fill="#FE875E"/>
<path d="M278.163 265.732C278.005 265.732 279.752 273.361 282.458 274.67C285.164 275.979 289.193 275.293 289.945 273.249C290.782 270.967 287.737 263.189 283.878 262.204C280.019 261.219 278.163 265.732 278.163 265.732Z" fill="#F7A491"/>
<path d="M281.294 258.726C279.76 259.638 278.542 261.02 277.811 262.678C276.792 263.176 275.566 264.248 274.984 267.128C274.73 268.686 275.061 270.284 275.91 271.601C276.759 272.918 278.063 273.854 279.558 274.221C280.265 274.35 280.926 274.665 281.479 275.135C282.032 275.605 282.457 276.213 282.713 276.901L283.017 274.907C282.68 273.942 282.165 273.053 281.5 272.289C280.59 271.416 281.937 270.157 282.058 269.122C282.143 268.325 281.573 266.779 281.694 265.47C282.451 264.254 283.484 263.245 284.703 262.528C287.251 261.493 284.072 257.081 281.294 258.726Z" fill="#13375B"/>
<path d="M282.446 270.444C282.798 271.329 282.653 272.201 282.119 272.401C281.585 272.6 280.905 272.039 280.517 271.154C280.129 270.269 280.311 269.397 280.845 269.197C281.378 268.998 282.094 269.571 282.446 270.444Z" fill="#F7A491"/>
<path d="M292.518 304.562L308.292 301.92C308.292 301.92 306.496 297.282 305.865 297.282C305.234 297.282 293.949 302.344 293.949 302.344L293.064 304.188L292.518 304.562Z" fill="#F8A492"/>
<path d="M284.412 315.644C283.523 320.154 283.209 324.764 283.477 329.357C284.12 335.266 284.169 356.283 284.169 356.283L281.742 389.94L287.53 390.065C287.53 390.065 294.41 356.407 294.277 357.33C294.143 358.252 296.582 333.645 296.582 333.645L288.392 314.946L284.412 315.644Z" fill="#184655"/>
<path d="M285.99 315.283C285.99 315.283 284.97 322.301 286.244 325.38C287.518 328.459 297.226 358.689 297.359 361.157C297.493 363.625 300.708 390.863 300.708 390.863L307.455 390.663L308.911 360.384L305.853 322.314L302.892 312.69L285.99 315.283Z" fill="#13375B"/>
<path d="M282.167 280.429C283.126 281.066 284.241 281.411 285.383 281.426C286.715 281.142 287.983 280.6 289.12 279.83L288.817 278.758C288.817 278.758 284.812 278.16 284.703 278.235C284.594 278.31 282.167 280.429 282.167 280.429Z" fill="#F7A491"/>
<path d="M299.883 297.058C299.883 297.058 305.841 302.83 308.522 301.845C311.204 300.86 312.32 297.494 305.768 292.558C299.895 288.145 299.883 297.058 299.883 297.058Z" fill="#F8A492"/>
<path d="M303.912 304.188C303.026 299.202 296.631 283.857 296.109 281.015C295.855 279.643 292.396 279.606 289.108 279.768C285.625 279.955 282.167 280.404 282.167 280.404C280.574 280.658 279.058 281.285 277.738 282.236C276.379 283.483 276.015 287.148 277.969 293.992C279.498 299.402 281.415 302.369 282.349 306.308C282.543 307.629 282.713 308.938 282.92 310.459C283.271 316.343 282.92 324.171 282.92 324.171C282.92 324.171 299.689 327.749 305.974 322.326C305.962 322.301 304.822 309.25 303.912 304.188Z" fill="#355389"/>
<path d="M308.195 293.555C308.195 293.555 301.606 299.14 301.23 299.14C300.853 299.14 291.838 292.221 289.726 286.55C288.513 283.408 291.013 279.905 293.804 279.905C295.745 279.905 296.606 280.429 300.441 283.757C304.275 287.086 308.195 293.555 308.195 293.555Z" fill="#466EB6"/>
<path d="M192.435 44.4652C193.515 41.7976 194.607 39.1299 197.41 37.7836C198.483 37.2662 199.677 37.0735 200.852 37.228C202.028 37.3826 203.136 37.878 204.047 38.6562C209.751 43.0566 204.788 47.9058 211.267 56.2578C213.282 58.8507 215.733 60.9449 216.934 63.9865C218.633 68.2498 216.618 70.2942 213.391 72.3261C197.944 82.0868 189.838 62.0543 190.13 57.4794C190.519 53.0795 191.291 48.7241 192.435 44.4652Z" fill="#13375B"/>
<path d="M176.418 96.3725C177.073 96.2727 178.651 95.1259 179.209 95.0012C179.767 94.8766 180.58 94.7644 180.98 94.7021C181.466 92.8322 183.941 82.6228 184.22 79.6186C184.523 76.3775 186.756 62.3411 186.756 62.3411L192.544 63.4256C192.544 63.4256 190.117 74.2209 189.474 79.4565C188.904 83.9566 184.099 94.0663 183.492 95.1259V95.2132C183.395 96.7963 182.655 96.2728 182.655 96.2728L181.441 96.5844C181.441 96.5844 177.158 97.0082 176.879 97.108C176.6 97.2077 175.751 96.4722 176.418 96.3725Z" fill="#F7A491"/>
<path d="M191.792 54.1386C187.703 55.5597 185.373 66.9783 185.373 66.9783C185.373 66.9783 191.792 68.8232 193.43 67.8509C193.43 67.8509 195.299 59.3618 195.966 59.6609L191.792 54.1386Z" fill="#6A97CE"/>
<path d="M160.158 116.093C159.327 118.379 158.677 120.73 158.217 123.124C158.217 123.311 158.447 124.233 158.423 124.37C155.911 127.886 152.356 128.659 149.213 128.883C150.791 127.3 153.108 125.804 153.218 125.305C153.973 122.259 154.508 119.159 154.819 116.031C156.724 117.041 158.035 116.318 160.158 116.093Z" fill="#F7A491"/>
<path d="M195.748 78.2473L201.269 94.2284C201.269 94.2284 192.387 95.9486 189.135 96.5719C185.883 97.1952 167.293 98.0304 166.796 98.367C166.298 98.7036 162.622 111.344 160.911 118.312C158.543 118.618 156.138 118.375 153.873 117.602C154.832 107.567 158.278 91.648 159.382 89.9152C161.117 87.0855 195.748 78.2473 195.748 78.2473Z" fill="#256653"/>
<path d="M174.161 123.124C173.758 125.533 173.543 127.972 173.518 130.416C173.518 130.616 173.955 131.463 173.967 131.663C172.147 135.602 168.737 137.061 165.74 137.896C166.954 136.038 169.004 134.156 169.016 133.608C169.205 130.472 169.164 127.326 168.895 124.196C170.958 124.695 172.099 123.722 174.161 123.124Z" fill="#F7A491"/>
<path d="M202.191 79.0077L204.339 82.7475C205.105 84.0946 205.578 85.5967 205.724 87.1498C205.871 88.703 205.687 90.2703 205.187 91.7435C204.686 93.2168 203.88 94.5608 202.824 95.6828C201.769 96.8048 200.489 97.6781 199.072 98.2423H198.975C195.833 99.4889 177.765 103.877 177.364 104.301C176.964 104.725 175.629 117.851 175.229 125.081C172.958 125.828 170.555 126.049 168.191 125.729C167.305 115.682 167.791 99.3892 168.555 97.4819C169.805 94.4528 202.191 79.0077 202.191 79.0077Z" fill="#327F6B"/>
<path d="M173.251 130.516C173.724 129.968 175.496 133.009 175.933 133.62C176.094 133.803 176.205 134.025 176.256 134.266C176.308 134.506 176.296 134.757 176.224 134.991C176.066 135.29 166.759 140.913 164.49 141.324C164.251 141.332 164.014 141.267 163.811 141.137C162.925 140.327 167.002 134.368 168.846 133.583C170.585 133.045 172.121 131.975 173.251 130.516Z" fill="#13375B"/>
<path d="M157.913 123.261C158.484 122.812 159.673 126.103 159.988 126.814C160.104 127.029 160.165 127.272 160.165 127.518C160.165 127.764 160.104 128.007 159.988 128.222C159.782 128.484 149.602 132.224 147.296 132.174C147.06 132.136 146.841 132.028 146.665 131.862C145.949 130.903 151.046 125.829 152.987 125.418C154.809 125.247 156.532 124.493 157.913 123.261Z" fill="#13375B"/>
<path d="M195.663 54.1012C195.522 54.0915 195.383 54.0622 195.25 54.014C194.015 53.7514 192.734 53.8288 191.537 54.2383C189.972 54.9115 187.533 61.2815 187.679 67.8011C187.739 68.7983 187.8 69.6958 187.848 70.2942C188.249 75.2805 189.62 84.4802 189.693 84.53C191.574 85.7766 202.871 80.9648 203.647 79.9177C204.424 78.8706 204.861 66.0434 205.261 65.3952L206.013 54.2508C204.703 53.8768 197.677 54.0888 195.663 54.1012Z" fill="#9BC1F9"/>
<path d="M200.249 50C199.895 51.7771 199.7 53.5839 199.667 55.3977C199.813 56.9185 199.109 61.83 196.027 61.8549C192.945 61.8798 195.432 55.622 195.723 54.1012C195.949 52.069 196.07 50.0259 196.087 47.9806L200.249 50Z" fill="#F7A491"/>
<path d="M195.966 50.2992C195.966 49.0526 195.966 47.9806 195.966 47.9806L200.189 50C200.189 50 200.031 50.7853 199.886 51.7951C199.162 51.9897 198.397 51.9505 197.696 51.6828C196.995 51.4152 196.391 50.9321 195.966 50.2992Z" fill="#F47458"/>
<path d="M201.791 39.3169C202.845 39.9957 203.628 41.039 203.999 42.2588C204.594 44.2658 203.926 49.439 199.728 50.6856C195.529 51.9322 193.661 47.8434 194.571 44.6273C195.481 41.4111 197.325 37.3722 201.791 39.3169Z" fill="#F7A491"/>
<path d="M194.049 43.3433C194.134 44.2034 194.595 44.8641 195.081 44.8143C195.566 44.7644 195.906 44.0289 195.821 43.1688C195.736 42.3087 195.275 41.648 194.789 41.6978C194.304 41.7477 193.964 42.533 194.049 43.3433Z" fill="#F7A491"/>
<path d="M201.293 39.0551C201.293 39.0551 202.057 44.8392 203.878 45.8738C205.698 46.9085 204.933 49.4889 204.933 49.4889C204.933 49.4889 206.583 43.5303 205.139 41.623C204.127 40.4017 202.791 39.5094 201.293 39.0551Z" fill="#13375B"/>
<path d="M202.797 46.7091C202.3 47.457 202.3 48.3545 202.797 48.6911C203.295 49.0277 204.096 48.6911 204.593 47.9432C205.091 47.1952 205.079 46.3101 204.593 45.9611C204.108 45.6121 203.295 45.9611 202.797 46.7091Z" fill="#F7A491"/>
<path d="M196.682 47.083L199.643 47.8434C199.524 48.18 199.284 48.4569 198.972 48.617C198.661 48.777 198.301 48.808 197.968 48.7036C196.378 48.3296 196.682 47.083 196.682 47.083Z" fill="white"/>
<path d="M211.364 95.8863L224.117 95.2381C224.117 95.2381 218.887 99.09 218.778 99.09C218.669 99.09 214.616 97.4445 214.434 97.4445C214.252 97.4445 211.364 95.8863 211.364 95.8863Z" fill="#50BFA5"/>
<path d="M466.642 388.781L466.885 393.331C467.08 394.153 467.233 394.985 467.346 395.824C467.346 397.794 458.852 394.154 460.745 393.331C460.915 393.244 461.813 392.645 461.873 391.985C461.958 390.95 462.177 388.856 462.177 388.856L466.642 388.781Z" fill="#F7A491"/>
<path d="M460.66 393.331C461.653 393.639 462.662 393.893 463.681 394.091C464.701 394.241 466.047 392.969 466.775 393.306C467.504 393.642 467.54 397.046 467.54 397.046C467.54 397.046 456.825 398.018 453.816 397.046C452.627 396.659 456.571 394.739 460.66 393.331Z" fill="#F7CC7F"/>
<path d="M480.803 388.544L481.058 393.094C481.143 393.68 481.507 395.101 481.507 395.587C481.507 397.557 473.013 393.917 474.906 393.094C475.075 393.007 476.252 391.972 476.313 391.299C476.398 390.264 476.313 388.619 476.313 388.619L480.803 388.544Z" fill="#F7A491"/>
<path d="M474.918 393.057C475.911 393.365 476.92 393.619 477.939 393.817C478.958 393.967 480.305 392.695 481.033 393.044C481.761 393.393 481.859 396.784 481.859 396.784C481.859 396.784 471.229 397.233 468.074 396.784C466.849 396.584 470.841 394.465 474.918 393.057Z" fill="#F7CC7F"/>
<path d="M478.279 316.343C479.093 320.782 479.382 325.307 479.14 329.818C478.546 335.627 478.497 356.27 478.497 356.27L481.215 389.292L475.427 389.429C475.427 389.429 469.117 356.42 469.227 357.268C469.336 358.115 467.115 334.019 467.115 334.019L474.638 315.62L478.279 316.343Z" fill="#355389"/>
<path d="M476.264 311.431C476.264 311.431 482.793 318.499 480.366 326.215C479.395 329.319 470.282 358.938 470.173 361.369C470.064 363.8 467.091 390.551 467.091 390.551L460.903 390.364L459.568 360.608L461.339 320.506L465.089 313.75L476.264 311.431Z" fill="#466EB6"/>
<path d="M436.61 288.432C438.72 286.27 440.992 284.282 443.405 282.486C444.6 281.4 445.906 280.451 447.3 279.656C448.975 279.07 451.814 277.487 455.94 283.907C458.888 288.507 477.502 312.291 480.56 313.089L460.611 322.9C460.065 318.212 450.2 309.362 448.781 307.704C445.614 304.014 434.584 290.75 436.61 288.432Z" fill="#F47458"/>
<path d="M437.532 278.459L443.757 282.199C443.757 282.199 443.927 287.646 441.901 289.068C440.19 290.252 438.891 287.41 438.891 287.41C437.762 285.761 436.391 284.302 434.827 283.084C433.067 282.062 437.532 278.459 437.532 278.459Z" fill="#F7A491"/>
<path d="M438.576 280.865C438.272 282.329 437.726 283.729 436.962 285.004C436.344 284.261 435.625 283.615 434.826 283.084C434.013 282.61 434.535 281.588 435.324 280.591C436.44 279.344 437.532 278.422 437.532 278.422L438.746 279.145C438.775 279.724 438.718 280.304 438.576 280.865Z" fill="#F47458"/>
<path d="M434.305 269.097C434.402 268.96 439.51 275.492 438.879 278.559C438.248 281.626 435.166 284.418 433.019 283.657C430.592 282.797 426.223 275.106 427.813 271.379C429.403 267.651 434.305 269.097 434.305 269.097Z" fill="#F7A491"/>
<path d="M428.711 267.028C430.031 266.328 431.489 265.948 432.974 265.917C434.46 265.887 435.932 266.207 437.277 266.854C440.614 268.649 441.379 273.161 440.335 275.916C440.003 276.591 439.841 277.342 439.867 278.098C439.892 278.855 440.104 279.592 440.481 280.242L438.721 279.17C438.137 278.265 437.725 277.254 437.508 276.19C437.375 274.869 435.494 275.106 434.584 274.508C433.88 274.046 432.97 272.538 431.829 271.765C430.387 271.562 428.918 271.715 427.546 272.214C425.168 273.61 425.52 268.861 428.711 267.028Z" fill="#13375B"/>
<path d="M436.088 275.605C436.088 276.589 436.525 277.387 437.095 277.4C437.666 277.412 438.151 276.627 438.163 275.642C438.175 274.657 437.726 273.859 437.156 273.847C436.586 273.834 436.088 274.632 436.088 275.605Z" fill="#F7A491"/>
<path d="M430.822 280.815L433.528 278.733C433.727 279.071 433.792 279.475 433.708 279.861C433.624 280.246 433.399 280.584 433.079 280.803C431.659 281.962 430.822 280.815 430.822 280.815Z" fill="white"/>
<path d="M424.027 322.152C424.581 320.907 425.217 319.703 425.932 318.549C426.353 318.084 426.821 317.666 427.328 317.302C431.829 314.585 443.575 307.604 444.024 307.068C444.473 306.532 452.518 292.745 452.518 292.745L445.323 291.062L438.358 303.877C437.763 304.351 426.6 312.827 426.6 312.827C426.6 312.827 424.379 314.61 423.166 315.445C422.618 315.767 422.041 316.034 421.443 316.243C420.687 316.53 419.963 316.897 419.283 317.34C418.992 317.602 418.397 318.175 418.069 318.586C417.742 318.998 417.293 319.322 417.135 319.521C416.942 319.69 416.725 319.829 416.492 319.933C416.419 319.974 416.36 320.035 416.321 320.111C416.282 320.186 416.265 320.271 416.273 320.356C416.281 320.441 416.312 320.522 416.364 320.588C416.416 320.655 416.486 320.704 416.565 320.73C416.946 320.763 417.329 320.672 417.657 320.469C418.458 320.082 419.453 319.023 419.501 319.16C419.55 319.297 418.555 321.541 418.458 321.803C417.954 322.938 417.517 324.104 417.147 325.293C417.086 325.879 417.426 326.016 417.681 325.792C417.936 325.567 419.756 322.052 419.756 322.052C419.756 322.052 419.999 321.603 420.084 321.865C420.169 322.127 418.506 325.305 418.336 325.829C418.166 326.353 418.336 326.789 418.773 326.602C419.21 326.415 420.933 322.862 420.933 322.862C420.933 322.862 421.139 322.426 421.285 322.575C421.43 322.725 419.95 325.418 419.938 325.729C419.925 325.812 419.937 325.897 419.974 325.973C420.011 326.048 420.07 326.109 420.142 326.148C420.215 326.186 420.298 326.201 420.379 326.188C420.46 326.176 420.535 326.137 420.593 326.078C421.326 324.996 421.949 323.839 422.45 322.625C422.45 322.625 422.62 322.413 422.668 322.563C422.717 322.713 421.625 325.056 421.71 325.443C421.724 325.518 421.766 325.584 421.827 325.628C421.888 325.672 421.963 325.69 422.037 325.679C422.595 325.642 423.348 323.161 424.027 322.152Z" fill="#F8A492"/>
<path d="M450.65 299.988C450.65 299.988 448.308 299.227 446.803 298.517C445.796 298.043 441.403 295.799 441.403 295.799C442.248 292.02 443.306 288.295 444.57 284.642C449.278 273.822 454.617 281.289 455.333 283.022C456.923 286.923 450.65 299.988 450.65 299.988Z" fill="#355389"/>
<path d="M286.899 271.64L289.132 269.92C289.217 270.059 289.275 270.213 289.303 270.374C289.33 270.535 289.326 270.701 289.291 270.86C289.256 271.02 289.191 271.171 289.099 271.305C289.007 271.439 288.891 271.553 288.756 271.64C287.591 272.588 286.899 271.64 286.899 271.64Z" fill="white"/>
<path d="M548.742 396.846H30.5293C30.3516 396.865 30.1792 396.919 30.022 397.007C29.8648 397.094 29.7258 397.212 29.6131 397.354C29.5004 397.497 29.4162 397.661 29.3652 397.836C29.3141 398.012 29.2974 398.197 29.3159 398.379C29.2974 398.562 29.3141 398.747 29.3652 398.922C29.4162 399.098 29.5004 399.262 29.6131 399.405C29.7258 399.547 29.8648 399.665 30.022 399.752C30.1792 399.84 30.3516 399.894 30.5293 399.913H548.742C548.919 399.894 549.092 399.84 549.249 399.752C549.406 399.665 549.545 399.547 549.658 399.405C549.77 399.262 549.855 399.098 549.906 398.922C549.957 398.747 549.973 398.562 549.955 398.379C549.973 398.197 549.957 398.012 549.906 397.836C549.855 397.661 549.77 397.497 549.658 397.354C549.545 397.212 549.406 397.094 549.249 397.007C549.092 396.919 548.919 396.865 548.742 396.846Z" fill="#440F9E"/>
<path d="M224.409 95.2256C224.348 95.076 224.239 95.076 224.117 95.076C222.944 95.0595 221.773 94.9679 220.611 94.8018C220.419 94.7771 220.231 94.7268 220.052 94.6522C219.738 94.5401 219.396 94.5401 219.082 94.6522C218.905 94.6775 218.725 94.6775 218.548 94.6522C217.953 94.6522 216.279 94.0663 215.417 93.9167C215.321 93.896 215.232 93.8475 215.161 93.7769C215.09 93.7062 215.04 93.6164 215.017 93.5178C214.167 90.0773 212.347 82.2987 212.105 79.8055C211.813 76.552 209.678 61.8798 209.678 61.8798L203.829 63.5627C203.829 63.5627 206.256 74.3829 206.911 79.631C207.421 83.6824 211.364 92.2837 212.602 94.7519C212.722 95.2852 213.008 95.7632 213.418 96.1124C213.829 96.4616 214.339 96.6625 214.871 96.6841C214.961 96.694 215.048 96.7223 215.127 96.7672C215.207 96.8122 215.276 96.8729 215.332 96.9459C215.55 97.1984 215.799 97.4205 216.072 97.6066C216.274 97.7405 216.447 97.9143 216.582 98.1177C216.825 98.4916 217.043 98.8781 217.274 99.2645C217.504 99.651 217.565 99.6136 217.783 99.5512C218.002 99.4889 218.123 99.3144 218.123 99.0152C218.115 98.5751 217.994 98.145 217.771 97.7686C217.669 97.6501 217.612 97.4971 217.612 97.3386C217.612 97.1801 217.669 97.0271 217.771 96.9085C217.9 96.7278 218.047 96.5608 218.208 96.4099C218.287 96.3323 218.38 96.2723 218.482 96.2337C218.585 96.195 218.694 96.1786 218.803 96.1855C219.225 96.2997 219.655 96.383 220.089 96.4348L220.441 96.5096H220.635C220.921 96.5495 221.208 96.5745 221.496 96.5844H222.176C222.405 96.5732 222.633 96.5398 222.855 96.4847C223.058 96.4825 223.253 96.4025 223.401 96.2603C223.474 96.2603 223.535 96.1356 223.499 96.0359C223.462 95.9362 223.401 95.9112 223.304 95.8863C223.018 95.8553 222.735 95.8053 222.455 95.7367H223.559C223.839 95.7287 224.105 95.6078 224.299 95.4001C224.36 95.45 224.457 95.3627 224.409 95.2256Z" fill="#F7A491"/>
<path d="M206.074 54.2508C208.962 53.7148 211.352 66.9783 211.352 66.9783C211.352 66.9783 204.933 68.8232 203.295 67.8509C203.295 67.8509 201.427 59.3618 200.759 59.6609L206.074 54.2508Z" fill="#9BC1F9"/>
<path d="M136.278 292.745C136.473 292.184 133.852 291.735 133.67 291.162C133.488 290.588 137.031 290.551 137.152 290.052C137.383 289.13 133.318 289.853 133.391 289.429C133.463 289.005 137.637 288.033 137.188 287.297C136.74 286.562 132.978 288.756 132.857 288.257C132.735 287.759 136.497 286.537 136.497 285.428C136.497 284.842 130.272 288.357 129.544 288.045C128.816 287.734 130.321 284.966 129.75 284.555C129.18 284.144 127.542 290.165 127.141 290.364C126.741 290.563 118.393 295.462 115.408 296.248C115.056 295.226 114.267 293.842 113.952 292.87C112.277 294.116 111.039 294.702 109.316 295.824C110.53 299.04 112.338 302.555 113.211 302.954C115.857 304.201 126.098 295.475 128.149 293.967C130.199 292.458 131.364 292.957 132.747 292.483C134.131 292.009 136.084 293.306 136.278 292.745Z" fill="#F7A491"/>
<path d="M108.94 297.37C108.94 297.37 106.647 286.961 107.035 283.932C107.423 280.903 110.93 278.098 113.345 279.145C115.759 280.192 116.864 294.715 116.864 294.715L108.94 297.37Z" fill="#F7CC7F"/>
</g>
<defs>
<clipPath id="clip0">
<rect width="558" height="400" fill="white"/>
</clipPath>
</defs>
</svg>
