<svg width="1166" height="50" viewBox="0 0 1166 50" fill="none" xmlns="http://www.w3.org/2000/svg">
<line x1="508" y1="25.5" y2="25.5" stroke="#FAFAFA"/>
<path d="M608 25C608 11.2152 596.786 0 583 0C569.214 0 558 11.2152 558 25C558 31.8093 560.96 36.8635 566.754 40.063C567.905 48.1336 571.417 50 583 50C594.26 50 597.899 48.2537 599.151 40.7434C605.008 37.7146 608 32.4346 608 25Z" fill="#303C42"/>
<path d="M605.726 27.8646C603.217 25.5148 601.75 22.219 601.75 18.75C601.75 16.9758 602.133 15.2305 602.863 13.6198C604.795 16.9773 605.917 20.8565 605.917 25C605.917 26.0078 605.841 26.9526 605.726 27.8646Z" fill="#F2F2F2"/>
<path d="M583 25C588.753 25 593.417 20.3363 593.417 14.5833C593.417 8.83031 588.753 4.1666 583 4.1666C577.247 4.1666 572.583 8.83031 572.583 14.5833C572.583 20.3363 577.247 25 583 25Z" fill="#F2F2F2"/>
<path d="M563.137 13.6198C563.868 15.2305 564.25 16.9758 564.25 18.75C564.25 22.1925 562.801 25.4722 560.319 27.8191C560.179 26.9161 560.083 25.9867 560.083 25C560.083 20.8564 561.205 16.9773 563.137 13.6198Z" fill="#F2F2F2"/>
<path d="M583 47.9167C570.803 47.9167 569.232 45.9361 568.561 37.5417C571.56 34.2946 577.041 32.2917 583 32.2917C588.959 32.2917 594.44 34.2946 597.439 37.5417C596.767 45.936 595.197 47.9167 583 47.9167Z" fill="#FEE4D0"/>
<path d="M599.465 38.182C599.493 37.8742 599.526 37.5822 599.55 37.2589C599.571 36.9852 599.481 36.7146 599.304 36.5051C595.99 32.6212 589.742 30.2083 583 30.2083C576.257 30.2083 570.009 32.6212 566.695 36.5051C566.518 36.7146 566.429 36.9852 566.449 37.2589C566.455 37.3331 566.463 37.3974 566.469 37.4707C563.672 35.6027 561.808 33.1282 560.851 30.0963C564.286 27.3361 566.333 23.1629 566.333 18.75C566.333 16.2492 565.655 13.8125 564.426 11.6298C568.356 6.18495 574.607 2.54306 581.723 2.14814C575.428 2.78964 570.5 8.12138 570.5 14.5833C570.5 21.4762 576.107 27.0833 583 27.0833C589.893 27.0833 595.5 21.4762 595.5 14.5833C595.5 8.12128 590.572 2.78964 584.276 2.14804C591.393 2.54296 597.643 6.18486 601.574 11.6297C600.344 13.8125 599.666 16.2491 599.666 18.7499C599.666 23.2227 601.761 27.4381 605.273 30.1971C604.359 33.6494 602.441 36.2963 599.465 38.182Z" fill="#222222"/>
<path d="M605.726 27.8646C603.217 25.5148 601.75 22.219 601.75 18.75C601.75 16.9758 602.133 15.2305 602.863 13.6198C604.795 16.9773 605.917 20.8565 605.917 25C605.917 26.0078 605.841 26.9526 605.726 27.8646Z" fill="#F2F2F2"/>
<path d="M599.465 38.182C599.493 37.8742 599.526 37.5822 599.55 37.2589C599.571 36.9852 599.481 36.7146 599.304 36.5051C595.99 32.6212 589.742 30.2083 583 30.2083C576.257 30.2083 570.009 32.6212 566.695 36.5051C566.518 36.7146 566.429 36.9852 566.449 37.2589C566.455 37.3331 566.463 37.3974 566.469 37.4707C563.672 35.6027 561.808 33.1282 560.851 30.0963C564.286 27.3361 566.333 23.1629 566.333 18.75C566.333 16.2492 565.655 13.8125 564.426 11.6298C568.356 6.18495 574.607 2.54306 581.723 2.14814C575.428 2.78964 570.5 8.12138 570.5 14.5833C570.5 21.4762 576.107 27.0833 583 27.0833C589.893 27.0833 595.5 21.4762 595.5 14.5833C595.5 8.12128 590.572 2.78964 584.276 2.14804C591.393 2.54296 597.643 6.18486 601.574 11.6297C600.344 13.8125 599.666 16.2491 599.666 18.7499C599.666 23.2227 601.761 27.4381 605.273 30.1971C604.359 33.6494 602.441 36.2963 599.465 38.182Z" fill="#222222"/>
<path d="M583 47.9167C595.197 47.9167 596.767 45.9361 597.439 37.5417C594.44 34.2946 588.959 32.2917 583 32.2917C577.041 32.2917 571.56 34.2946 568.561 37.5417L578.828 47.8091C580.06 47.8831 581.441 47.9167 583 47.9167Z" fill="url(#paint0_linear)"/>
<path d="M577.271 35.4176C576.459 35.4176 575.708 35.9222 575.708 39.5843C575.708 43.2464 576.459 43.751 577.271 43.751C578.083 43.751 578.833 43.2464 578.833 39.5843C578.833 35.9222 578.083 35.4176 577.271 35.4176Z" fill="#303C42"/>
<path d="M588.729 43.75C589.541 43.75 590.292 43.2454 590.292 39.5833C590.292 35.9212 589.541 35.4166 588.729 35.4166C587.918 35.4166 587.167 35.9212 587.167 39.5833C587.167 43.2454 587.918 43.75 588.729 43.75Z" fill="#303C42"/>
<path d="M608 25C608 11.2152 596.786 0 583 0C569.214 0 558 11.2152 558 25C558 31.8093 560.96 36.8635 566.754 40.063C567.905 48.1336 571.417 50 583 50C594.26 50 597.899 48.2537 599.151 40.7434C605.008 37.7146 608 32.4346 608 25Z" fill="url(#paint1_linear)"/>
<path opacity="0.1" d="M560.318 27.8191C560.694 27.4635 561.038 27.0803 561.365 26.6846C560.946 26.5346 560.545 26.3659 560.138 26.2038C560.179 26.7536 560.237 27.2933 560.318 27.8191Z" fill="black"/>
<path opacity="0.1" d="M601.854 20.2721C602.216 23.1703 603.587 25.862 605.726 27.8646C605.841 26.9525 605.917 26.0078 605.917 25C605.917 22.2371 605.379 19.6097 604.475 17.1581C603.746 18.2509 602.864 19.2906 601.854 20.2721Z" fill="black"/>
<path opacity="0.1" d="M563.459 27.3538C562.712 28.3644 561.848 29.2952 560.851 30.0963C561.808 33.1282 563.672 35.6028 566.469 37.4707C566.463 37.3974 566.455 37.3331 566.449 37.2589C566.429 36.9853 566.518 36.7147 566.695 36.5051C570.009 32.6212 576.257 30.2083 583 30.2083C589.742 30.2083 595.99 32.6212 599.304 36.5051C599.481 36.7147 599.571 36.9853 599.55 37.2589C599.526 37.5822 599.493 37.8742 599.465 38.182C602.441 36.2963 604.359 33.6494 605.273 30.1971C602.596 28.0944 600.751 25.1439 600.021 21.8802C594.381 26.3231 585.812 29.1666 576.229 29.1666C571.67 29.1667 567.354 28.5064 563.459 27.3538Z" fill="black"/>
<line x1="1166" y1="24.5" x2="658" y2="24.5" stroke="#FAFAFA"/>
<defs>
<linearGradient id="paint0_linear" x1="575.777" y1="30.3152" x2="592.973" y2="47.5107" gradientUnits="userSpaceOnUse">
<stop stop-opacity="0.1"/>
<stop offset="1" stop-opacity="0"/>
</linearGradient>
<linearGradient id="paint1_linear" x1="560.126" y1="14.9039" x2="605.176" y2="35.9102" gradientUnits="userSpaceOnUse">
<stop stop-color="white" stop-opacity="0.2"/>
<stop offset="1" stop-color="white" stop-opacity="0"/>
</linearGradient>
</defs>
</svg>
