<svg width="38" height="36" viewBox="0 0 38 36" fill="none" xmlns="http://www.w3.org/2000/svg">
<g filter="url(#filter0_d)">
<path d="M4.9375 18.5625C5.18614 18.5625 5.4246 18.6613 5.60041 18.8371C5.77623 19.0129 5.875 19.2514 5.875 19.5V24.1875C5.875 24.6848 6.07254 25.1617 6.42417 25.5133C6.77581 25.865 7.25272 26.0625 7.75 26.0625H30.25C30.7473 26.0625 31.2242 25.865 31.5758 25.5133C31.9275 25.1617 32.125 24.6848 32.125 24.1875V19.5C32.125 19.2514 32.2238 19.0129 32.3996 18.8371C32.5754 18.6613 32.8139 18.5625 33.0625 18.5625C33.3111 18.5625 33.5496 18.6613 33.7254 18.8371C33.9012 19.0129 34 19.2514 34 19.5V24.1875C34 25.1821 33.6049 26.1359 32.9016 26.8392C32.1984 27.5424 31.2446 27.9375 30.25 27.9375H7.75C6.75544 27.9375 5.80161 27.5424 5.09835 26.8392C4.39509 26.1359 4 25.1821 4 24.1875V19.5C4 19.2514 4.09877 19.0129 4.27459 18.8371C4.4504 18.6613 4.68886 18.5625 4.9375 18.5625Z" fill="#FAFAFA"/>
<path d="M18.3365 22.2262C18.4235 22.3136 18.527 22.3828 18.6409 22.4301C18.7548 22.4773 18.8769 22.5017 19.0002 22.5017C19.1235 22.5017 19.2456 22.4773 19.3595 22.4301C19.4734 22.3828 19.5769 22.3136 19.664 22.2262L25.289 16.6012C25.465 16.4252 25.5639 16.1865 25.5639 15.9375C25.5639 15.6885 25.465 15.4498 25.289 15.2737C25.1129 15.0977 24.8742 14.9988 24.6252 14.9988C24.3763 14.9988 24.1375 15.0977 23.9615 15.2737L19.9377 19.2994V2.8125C19.9377 2.56386 19.8389 2.3254 19.6631 2.14959C19.4873 1.97377 19.2488 1.875 19.0002 1.875C18.7516 1.875 18.5131 1.97377 18.3373 2.14959C18.1615 2.3254 18.0627 2.56386 18.0627 2.8125V19.2994L14.039 15.2737C13.8629 15.0977 13.6242 14.9988 13.3752 14.9988C13.1263 14.9988 12.8875 15.0977 12.7115 15.2737C12.5354 15.4498 12.4365 15.6885 12.4365 15.9375C12.4365 16.1865 12.5354 16.4252 12.7115 16.6012L18.3365 22.2262Z" fill="#FAFAFA"/>
</g>
<defs>
<filter id="filter0_d" x="0" y="0" width="38" height="38" filterUnits="userSpaceOnUse" color-interpolation-filters="sRGB">
<feFlood flood-opacity="0" result="BackgroundImageFix"/>
<feColorMatrix in="SourceAlpha" type="matrix" values="0 0 0 0 0 0 0 0 0 0 0 0 0 0 0 0 0 0 127 0"/>
<feOffset dy="4"/>
<feGaussianBlur stdDeviation="2"/>
<feColorMatrix type="matrix" values="0 0 0 0 0 0 0 0 0 0 0 0 0 0 0 0 0 0 0.25 0"/>
<feBlend mode="normal" in2="BackgroundImageFix" result="effect1_dropShadow"/>
<feBlend mode="normal" in="SourceGraphic" in2="effect1_dropShadow" result="shape"/>
</filter>
</defs>
</svg>
