<svg width="157" height="50" viewBox="0 0 157 50" fill="none" xmlns="http://www.w3.org/2000/svg">
<path d="M64.392 33.24C63.72 33.24 63.056 33.192 62.4 33.096C61.76 33 61.248 32.888 60.864 32.76L61.056 31.68H64.176C65.52 31.68 66.512 31.44 67.152 30.96C67.808 30.48 68.232 29.72 68.424 28.68C68.456 28.536 68.472 28.344 68.472 28.104C68.472 27.64 68.36 27.256 68.136 26.952C67.928 26.632 67.664 26.368 67.344 26.16C67.04 25.952 66.608 25.704 66.048 25.416C65.376 25.08 64.832 24.768 64.416 24.48C64.016 24.192 63.672 23.808 63.384 23.328C63.096 22.832 62.952 22.208 62.952 21.456C62.952 21.152 62.992 20.76 63.072 20.28C63.328 18.824 63.888 17.744 64.752 17.04C65.632 16.32 66.848 15.96 68.4 15.96C69.088 15.96 69.752 16.008 70.392 16.104C71.032 16.2 71.536 16.312 71.904 16.44L71.712 17.52H68.592C67.632 17.52 66.872 17.752 66.312 18.216C65.752 18.68 65.392 19.368 65.232 20.28C65.184 20.52 65.16 20.736 65.16 20.928C65.16 21.408 65.272 21.824 65.496 22.176C65.72 22.512 65.992 22.792 66.312 23.016C66.648 23.24 67.096 23.488 67.656 23.76C68.312 24.096 68.84 24.408 69.24 24.696C69.64 24.968 69.976 25.344 70.248 25.824C70.536 26.288 70.68 26.88 70.68 27.6C70.68 27.952 70.648 28.312 70.584 28.68C70.296 30.264 69.68 31.424 68.736 32.16C67.792 32.88 66.344 33.24 64.392 33.24ZM72.3675 33L75.3195 16.2H77.7195L80.5515 28.08H80.6715L82.7595 16.2H84.9195L81.9675 33H79.5675L76.7355 21.12H76.6155L74.5275 33H72.3675ZM85.3284 33L88.2804 16.2H96.4404L96.1524 17.88H90.1524L89.1684 23.4H94.4484L94.1604 25.08H88.8804L87.7764 31.32H93.7764L93.4884 33H85.3284ZM98.8451 33.24C98.1731 33.24 97.5091 33.192 96.8531 33.096C96.2131 33 95.7011 32.888 95.3171 32.76L95.5091 31.68H98.6291C99.9731 31.68 100.965 31.44 101.605 30.96C102.261 30.48 102.685 29.72 102.877 28.68C102.909 28.536 102.925 28.344 102.925 28.104C102.925 27.64 102.813 27.256 102.589 26.952C102.381 26.632 102.117 26.368 101.797 26.16C101.493 25.952 101.061 25.704 100.501 25.416C99.8291 25.08 99.2851 24.768 98.8691 24.48C98.4691 24.192 98.1251 23.808 97.8371 23.328C97.5491 22.832 97.4051 22.208 97.4051 21.456C97.4051 21.152 97.4451 20.76 97.5251 20.28C97.7811 18.824 98.3411 17.744 99.2051 17.04C100.085 16.32 101.301 15.96 102.853 15.96C103.541 15.96 104.205 16.008 104.845 16.104C105.485 16.2 105.989 16.312 106.357 16.44L106.165 17.52H103.045C102.085 17.52 101.325 17.752 100.765 18.216C100.205 18.68 99.8451 19.368 99.6851 20.28C99.6371 20.52 99.6131 20.736 99.6131 20.928C99.6131 21.408 99.7251 21.824 99.9491 22.176C100.173 22.512 100.445 22.792 100.765 23.016C101.101 23.24 101.549 23.488 102.109 23.76C102.765 24.096 103.293 24.408 103.693 24.696C104.093 24.968 104.429 25.344 104.701 25.824C104.989 26.288 105.133 26.88 105.133 27.6C105.133 27.952 105.101 28.312 105.037 28.68C104.749 30.264 104.133 31.424 103.189 32.16C102.245 32.88 100.797 33.24 98.8451 33.24ZM108.752 33L111.416 17.88H107.576L107.864 16.2H117.704L117.416 17.88H113.576L110.912 33H108.752ZM116.664 33L119.616 16.2H127.776L127.488 17.88H121.488L120.504 23.4H125.784L125.496 25.08H120.216L119.112 31.32H125.112L124.824 33H116.664ZM126.269 33L133.301 16.2H136.421L137.549 33H135.389L135.053 28.68H130.253L128.429 33H126.269ZM130.925 27H135.005L134.477 18.6H134.381L130.925 27ZM139.343 33L143.255 16.2H145.895L147.767 27.72H147.863L153.815 16.2H156.455L154.463 33H152.303L153.767 20.52H153.647L148.343 30.84H146.183L144.527 20.52H144.407L141.503 33H139.343Z" fill="#F8F8F8"/>
<g clip-path="url(#clip0)">
<path d="M25.0177 50C38.8148 50 49.9997 38.8071 49.9997 25C49.9997 11.1929 38.8148 0 25.0177 0C11.2205 0 0.0356445 11.1929 0.0356445 25C0.0356445 38.8071 11.2205 50 25.0177 50Z" fill="url(#paint0_linear)"/>
<path d="M14.3749 28.7456L12.415 30.1461L17.0313 36.6155L18.9912 35.215L14.3749 28.7456Z" fill="#222222"/>
<path d="M18.1337 29.3912L11.7349 34.1022L13.162 36.0435L19.5609 31.3325L18.1337 29.3912Z" fill="#222222"/>
<path d="M40.115 14.3885C35.2623 9.17266 29.6908 12.9496 29.6908 12.9496L10.6398 26.6187L0.233574 21.8525C-0.539252 25.8813 0.772754 31.8345 0.934508 31.8345L7.76413 33.0935C8.12358 39.7482 14.9532 40.6475 14.9532 40.6475C19.9316 40.6115 22.8432 38.3273 23.5801 33.6331L32.207 27.518C40.4744 28.9568 44.9676 19.6043 40.115 14.3885ZM15.8159 38.2194C12.7605 38.2194 10.2803 35.7374 10.2803 32.6799C10.2803 29.6223 12.7605 27.1583 15.8159 27.1583C18.8712 27.1583 21.3515 29.6403 21.3515 32.6978C21.3515 35.7374 18.8712 38.2194 15.8159 38.2194Z" fill="#222222"/>
<path d="M34.6517 18.3453C35.4954 18.3453 36.1794 17.6609 36.1794 16.8165C36.1794 15.9722 35.4954 15.2878 34.6517 15.2878C33.808 15.2878 33.124 15.9722 33.124 16.8165C33.124 17.6609 33.808 18.3453 34.6517 18.3453Z" fill="white"/>
<path d="M37.8866 20.8633C38.7303 20.8633 39.4142 20.1789 39.4142 19.3345C39.4142 18.4902 38.7303 17.8058 37.8866 17.8058C37.0429 17.8058 36.3589 18.4902 36.3589 19.3345C36.3589 20.1789 37.0429 20.8633 37.8866 20.8633Z" fill="white"/>
<path d="M35.5501 24.2806C36.3939 24.2806 37.0778 23.5961 37.0778 22.7518C37.0778 21.9075 36.3939 21.223 35.5501 21.223C34.7064 21.223 34.0225 21.9075 34.0225 22.7518C34.0225 23.5961 34.7064 24.2806 35.5501 24.2806Z" fill="white"/>
<path d="M32.1356 21.7626C32.9793 21.7626 33.6633 21.0781 33.6633 20.2338C33.6633 19.3895 32.9793 18.705 32.1356 18.705C31.2919 18.705 30.6079 19.3895 30.6079 20.2338C30.6079 21.0781 31.2919 21.7626 32.1356 21.7626Z" fill="white"/>
<path d="M28.2354 28.0216C28.1635 28.2014 27.9478 28.2914 27.7681 28.2194L27.0492 27.9496C26.8695 27.8777 26.7796 27.6619 26.8515 27.482L28.4331 23.4173C28.505 23.2374 28.7206 23.1475 28.9004 23.2194L29.6193 23.4892C29.799 23.5611 29.8889 23.777 29.817 23.9568L28.2354 28.0216Z" fill="white"/>
<path d="M24.0117 31.1511C23.9398 31.3309 23.7242 31.4209 23.5444 31.3489L22.8255 31.0791C22.6458 31.0072 22.556 30.7914 22.6278 30.6115L24.2094 26.5468C24.2813 26.3669 24.497 26.277 24.6767 26.3489L25.3956 26.6187C25.5754 26.6906 25.6652 26.9065 25.5933 27.0863L24.0117 31.1511Z" fill="white"/>
</g>
<defs>
<linearGradient id="paint0_linear" x1="25.0266" y1="0" x2="25.0266" y2="50" gradientUnits="userSpaceOnUse">
<stop offset="0.01" stop-color="#440F9E"/>
<stop offset="1" stop-color="#A074DB"/>
</linearGradient>
<clipPath id="clip0">
<rect width="50" height="50" fill="white"/>
</clipPath>
</defs>
</svg>
