<svg width="20" height="20" viewBox="0 0 20 20" fill="none" xmlns="http://www.w3.org/2000/svg">
<g clip-path="url(#clip0)">
<path d="M19.1375 13.5968C19.5474 13.074 19.744 12.5136 19.7189 11.9364C19.6938 11.3007 19.4094 10.803 19.1752 10.4977C19.447 9.82016 19.5516 8.75366 18.644 7.92555C17.979 7.31911 16.8498 7.04726 15.2856 7.12254C14.1856 7.17273 13.2655 7.37767 13.2279 7.38603H13.2237C13.0146 7.42367 12.7929 7.46968 12.567 7.51987C12.5503 7.2522 12.5963 6.5872 13.0898 5.08992C13.6754 3.30824 13.6419 1.94479 12.9811 1.03304C12.2868 0.0752824 11.1785 0 10.8523 0C10.5386 0 10.25 0.129653 10.0451 0.368047C9.58084 0.90757 9.63521 1.90297 9.69377 2.36303C9.1417 3.84358 7.59423 7.47386 6.28515 8.48181C6.26006 8.49854 6.23915 8.51945 6.21823 8.54036C5.83346 8.94605 5.57415 9.38519 5.39849 9.76997C5.15174 9.63614 4.87152 9.56085 4.57039 9.56085H2.01915C1.05721 9.56085 0.279297 10.343 0.279297 11.3007V18.097C0.279297 19.059 1.0614 19.8369 2.01915 19.8369H4.57039C4.94262 19.8369 5.28975 19.7198 5.57415 19.519L6.557 19.6361C6.70757 19.657 9.38428 19.9958 12.1321 19.9414C12.6298 19.9791 13.0982 20 13.5332 20C14.2818 20 14.9343 19.9414 15.478 19.8243C16.7578 19.5525 17.6319 19.0088 18.0752 18.21C18.414 17.5993 18.414 16.9929 18.3596 16.6081C19.1919 15.8553 19.3383 15.023 19.309 14.4375C19.2923 14.0987 19.217 13.8101 19.1375 13.5968ZM2.01915 18.7077C1.68038 18.7077 1.40853 18.4316 1.40853 18.097V11.2965C1.40853 10.9578 1.68457 10.6859 2.01915 10.6859H4.57039C4.90916 10.6859 5.18101 10.9619 5.18101 11.2965V18.0928C5.18101 18.4316 4.90498 18.7035 4.57039 18.7035H2.01915V18.7077V18.7077ZM18.0668 13.1075C17.8912 13.2915 17.8577 13.5717 17.9916 13.7892C17.9916 13.7934 18.163 14.0862 18.1839 14.4877C18.2132 15.0355 17.9497 15.5207 17.3977 15.9348C17.2011 16.0853 17.1216 16.3446 17.2053 16.5788C17.2053 16.583 17.3851 17.1351 17.0923 17.6579C16.8121 18.1598 16.189 18.5194 15.2437 18.7202C14.4867 18.8833 13.4579 18.9126 12.1948 18.8122C12.1781 18.8122 12.1572 18.8122 12.1363 18.8122C9.44701 18.8708 6.72848 18.5194 6.69921 18.5153H6.69502L6.27261 18.4651C6.2977 18.348 6.31025 18.2225 6.31025 18.097V11.2965C6.31025 11.1167 6.28097 10.941 6.23078 10.7779C6.30606 10.4977 6.51518 9.87453 7.0087 9.34337C8.88657 7.85445 10.7226 2.83145 10.8021 2.61397C10.8355 2.52614 10.8439 2.42995 10.8272 2.33375C10.7561 1.86533 10.7812 1.29235 10.8816 1.12087C11.1032 1.12505 11.7013 1.18779 12.061 1.68549C12.4876 2.2752 12.4708 3.32915 12.0108 4.72606C11.3082 6.85487 11.2496 7.97574 11.8059 8.46926C12.0819 8.71602 12.4499 8.72856 12.7176 8.63237C12.9727 8.57382 13.2153 8.52363 13.4453 8.48599C13.4621 8.48181 13.483 8.47762 13.4997 8.47344C14.7837 8.19322 17.084 8.02175 17.8828 8.74948C18.5604 9.36846 18.0794 10.1882 18.025 10.276C17.8703 10.5102 17.9163 10.8156 18.1254 11.0038C18.1296 11.0079 18.5687 11.422 18.5896 11.9783C18.6064 12.3505 18.4307 12.7311 18.0668 13.1075Z" fill="#B9B9B9"/>
</g>
<defs>
<clipPath id="clip0">
<rect width="20" height="20" fill="white"/>
</clipPath>
</defs>
</svg>
