<svg width="200" height="254" viewBox="0 0 200 254" fill="none" xmlns="http://www.w3.org/2000/svg">
<path d="M27.32 253.4C26.2 253.4 25.0933 253.32 24 253.16C22.9333 253 22.08 252.813 21.44 252.6L21.76 250.8H26.96C29.2 250.8 30.8533 250.4 31.92 249.6C33.0133 248.8 33.72 247.533 34.04 245.8C34.0933 245.56 34.12 245.24 34.12 244.84C34.12 244.067 33.9333 243.427 33.56 242.92C33.2133 242.387 32.7733 241.947 32.24 241.6C31.7333 241.253 31.0133 240.84 30.08 240.36C28.96 239.8 28.0533 239.28 27.36 238.8C26.6933 238.32 26.12 237.68 25.64 236.88C25.16 236.053 24.92 235.013 24.92 233.76C24.92 233.253 24.9867 232.6 25.12 231.8C25.5467 229.373 26.48 227.573 27.92 226.4C29.3867 225.2 31.4133 224.6 34 224.6C35.1467 224.6 36.2533 224.68 37.32 224.84C38.3867 225 39.2267 225.187 39.84 225.4L39.52 227.2H34.32C32.72 227.2 31.4533 227.587 30.52 228.36C29.5867 229.133 28.9867 230.28 28.72 231.8C28.64 232.2 28.6 232.56 28.6 232.88C28.6 233.68 28.7867 234.373 29.16 234.96C29.5333 235.52 29.9867 235.987 30.52 236.36C31.08 236.733 31.8267 237.147 32.76 237.6C33.8533 238.16 34.7333 238.68 35.4 239.16C36.0667 239.613 36.6267 240.24 37.08 241.04C37.56 241.813 37.8 242.8 37.8 244C37.8 244.587 37.7467 245.187 37.64 245.8C37.16 248.44 36.1333 250.373 34.56 251.6C32.9867 252.8 30.5733 253.4 27.32 253.4ZM40.6125 253L45.5325 225H49.5325L54.2525 244.8H54.4525L57.9325 225H61.5325L56.6125 253H52.6125L47.8925 233.2H47.6925L44.2125 253H40.6125ZM62.2141 253L67.1341 225H80.7341L80.2541 227.8H70.2541L68.6141 237H77.4141L76.9341 239.8H68.1341L66.2941 250.2H76.2941L75.8141 253H62.2141ZM84.7419 253.4C83.6219 253.4 82.5152 253.32 81.4219 253.16C80.3552 253 79.5019 252.813 78.8619 252.6L79.1819 250.8H84.3819C86.6219 250.8 88.2752 250.4 89.3419 249.6C90.4352 248.8 91.1419 247.533 91.4619 245.8C91.5152 245.56 91.5419 245.24 91.5419 244.84C91.5419 244.067 91.3552 243.427 90.9819 242.92C90.6352 242.387 90.1952 241.947 89.6619 241.6C89.1552 241.253 88.4352 240.84 87.5019 240.36C86.3819 239.8 85.4752 239.28 84.7819 238.8C84.1152 238.32 83.5419 237.68 83.0619 236.88C82.5819 236.053 82.3419 235.013 82.3419 233.76C82.3419 233.253 82.4085 232.6 82.5419 231.8C82.9685 229.373 83.9019 227.573 85.3419 226.4C86.8085 225.2 88.8352 224.6 91.4219 224.6C92.5685 224.6 93.6752 224.68 94.7419 224.84C95.8085 225 96.6485 225.187 97.2619 225.4L96.9419 227.2H91.7419C90.1419 227.2 88.8752 227.587 87.9419 228.36C87.0085 229.133 86.4085 230.28 86.1419 231.8C86.0619 232.2 86.0219 232.56 86.0219 232.88C86.0219 233.68 86.2085 234.373 86.5819 234.96C86.9552 235.52 87.4085 235.987 87.9419 236.36C88.5019 236.733 89.2485 237.147 90.1819 237.6C91.2752 238.16 92.1552 238.68 92.8219 239.16C93.4885 239.613 94.0485 240.24 94.5019 241.04C94.9819 241.813 95.2219 242.8 95.2219 244C95.2219 244.587 95.1685 245.187 95.0619 245.8C94.5819 248.44 93.5552 250.373 91.9819 251.6C90.4085 252.8 87.9952 253.4 84.7419 253.4ZM101.253 253L105.693 227.8H99.2931L99.7731 225H116.173L115.693 227.8H109.293L104.853 253H101.253ZM114.441 253L119.361 225H132.961L132.481 227.8H122.481L120.841 237H129.641L129.161 239.8H120.361L118.521 250.2H128.521L128.041 253H114.441ZM130.448 253L142.168 225H147.368L149.248 253H145.648L145.088 245.8H137.088L134.048 253H130.448ZM138.208 243H145.008L144.128 229H143.968L138.208 243ZM152.239 253L158.759 225H163.159L166.279 244.2H166.439L176.359 225H180.759L177.439 253H173.839L176.279 232.2H176.079L167.239 249.4H163.639L160.879 232.2H160.679L155.839 253H152.239Z" fill="#F8F8F8"/>
<g clip-path="url(#clip0)">
<path d="M100.071 200C155.259 200 199.999 155.228 199.999 100C199.999 44.7715 155.259 0 100.071 0C44.8819 0 0.142578 44.7715 0.142578 100C0.142578 155.228 44.8819 200 100.071 200Z" fill="url(#paint0_linear)"/>
<path d="M57.4998 114.982L49.6602 120.584L68.125 146.462L75.9646 140.86L57.4998 114.982Z" fill="#222222"/>
<path d="M72.5348 117.565L46.9395 136.408L52.6482 144.174L78.2435 125.33L72.5348 117.565Z" fill="#222222"/>
<path d="M160.46 57.5538C141.049 36.6905 118.763 51.7984 118.763 51.7984L42.559 106.475L0.934294 87.41C-2.15701 103.525 3.09102 127.338 3.73803 127.338L31.0565 132.374C32.4943 158.993 59.8128 162.59 59.8128 162.59C79.7265 162.446 91.3728 153.309 94.3203 134.532L128.828 110.072C161.898 115.827 179.87 78.4171 160.46 57.5538ZM63.2636 152.878C51.0421 152.878 41.1212 142.95 41.1212 130.719C41.1212 118.489 51.0421 108.633 63.2636 108.633C75.485 108.633 85.4059 118.561 85.4059 130.791C85.4059 142.95 75.485 152.878 63.2636 152.878Z" fill="#222222"/>
<path d="M138.607 73.3815C141.982 73.3815 144.718 70.6436 144.718 67.2663C144.718 63.8891 141.982 61.1512 138.607 61.1512C135.232 61.1512 132.496 63.8891 132.496 67.2663C132.496 70.6436 135.232 73.3815 138.607 73.3815Z" fill="white"/>
<path d="M151.546 83.4536C154.921 83.4536 157.657 80.7158 157.657 77.3385C157.657 73.9612 154.921 71.2234 151.546 71.2234C148.171 71.2234 145.436 73.9612 145.436 77.3385C145.436 80.7158 148.171 83.4536 151.546 83.4536Z" fill="white"/>
<path d="M142.201 97.1227C145.575 97.1227 148.311 94.3848 148.311 91.0076C148.311 87.6303 145.575 84.8925 142.201 84.8925C138.826 84.8925 136.09 87.6303 136.09 91.0076C136.09 94.3848 138.826 97.1227 142.201 97.1227Z" fill="white"/>
<path d="M128.542 87.0504C131.917 87.0504 134.653 84.3126 134.653 80.9353C134.653 77.558 131.917 74.8202 128.542 74.8202C125.168 74.8202 122.432 77.558 122.432 80.9353C122.432 84.3126 125.168 87.0504 128.542 87.0504Z" fill="white"/>
<path d="M112.942 112.086C112.654 112.806 111.791 113.165 111.072 112.878L108.197 111.799C107.478 111.511 107.118 110.647 107.406 109.928L113.732 93.669C114.02 92.9496 114.883 92.5899 115.601 92.8777L118.477 93.9568C119.196 94.2446 119.555 95.1079 119.268 95.8273L112.942 112.086Z" fill="white"/>
<path d="M96.0469 124.605C95.7594 125.324 94.8967 125.684 94.1778 125.396L91.3022 124.317C90.5833 124.029 90.2238 123.166 90.5114 122.446L96.8377 106.187C97.1253 105.468 97.988 105.108 98.7069 105.396L101.583 106.475C102.301 106.763 102.661 107.626 102.373 108.346L96.0469 124.605Z" fill="white"/>
</g>
<defs>
<linearGradient id="paint0_linear" x1="100.107" y1="0" x2="100.107" y2="200" gradientUnits="userSpaceOnUse">
<stop offset="0.01" stop-color="#440F9E"/>
<stop offset="1" stop-color="#A074DB"/>
</linearGradient>
<clipPath id="clip0">
<rect width="200" height="200" fill="white"/>
</clipPath>
</defs>
</svg>
