<?xml version="1.0" encoding="utf-8"?>
<!-- Generator: Adobe Illustrator 25.1.0, SVG Export Plug-In . SVG Version: 6.00 Build 0)  -->
<svg version="1.1" id="Layer_1" xmlns="http://www.w3.org/2000/svg" xmlns:xlink="http://www.w3.org/1999/xlink" x="0px" y="0px"
	 viewBox="0 0 278.2 278" style="enable-background:new 0 0 278.2 278;" xml:space="preserve">
<style type="text/css">
	.st0{fill:url(#SVGID_1_);}
	.st1{fill:#222222;}
	.st2{fill:#FFFFFF;}
</style>
<g id="Layer_3">
	
		<linearGradient id="SVGID_1_" gradientUnits="userSpaceOnUse" x1="143" y1="-233.1102" x2="143" y2="44.8898" gradientTransform="matrix(1 0 0 1 -3.75 233.1102)">
		<stop  offset="1.000000e-02" style="stop-color:#440F9E"/>
		<stop  offset="1" style="stop-color:#A074DB"/>
	</linearGradient>
	<circle class="st0" cx="139.2" cy="139" r="139"/>
</g>
<g id="Layer_4">
	
		<rect x="80.7" y="159.6" transform="matrix(0.8138 -0.5811 0.5811 0.8138 -89.3403 84.6246)" class="st1" width="13.4" height="44.2"/>
	
		<rect x="65" y="175.2" transform="matrix(0.8055 -0.5926 0.5926 0.8055 -90.8866 87.0035)" class="st1" width="44.2" height="13.4"/>
	<path class="st1" d="M223.2,80c-27-29-58-8-58-8l-106,76L1.3,121.5c-4.3,22.4,3,55.5,3.9,55.5l38,7c2,37,40,42,40,42
		c27.7-0.2,43.9-12.9,48-39l48-34C225.2,161,250.2,109,223.2,80z M88,212.5c-17,0-30.8-13.8-30.8-30.8S71,151,88,151
		s30.8,13.8,30.8,30.8l0,0C118.8,198.7,105,212.5,88,212.5z"/>
</g>
<g id="Layer_5">
	<circle class="st2" cx="192.8" cy="93.5" r="8.5"/>
	<circle class="st2" cx="210.8" cy="107.5" r="8.5"/>
	<circle class="st2" cx="197.8" cy="126.5" r="8.5"/>
	<circle class="st2" cx="178.8" cy="112.5" r="8.5"/>
	<path class="st2" d="M157.1,155.8c-0.4,1-1.6,1.5-2.6,1.1c0,0,0,0,0,0l-4-1.5c-1-0.4-1.5-1.6-1.1-2.6c0,0,0,0,0,0l8.8-22.6
		c0.4-1,1.6-1.5,2.6-1.1c0,0,0,0,0,0l4,1.5c1,0.4,1.5,1.6,1.1,2.6c0,0,0,0,0,0L157.1,155.8z"/>
	<path class="st2" d="M133.6,173.2c-0.4,1-1.6,1.5-2.6,1.1c0,0,0,0,0,0l-4-1.5c-1-0.4-1.5-1.6-1.1-2.6c0,0,0,0,0,0l8.8-22.6
		c0.4-1,1.6-1.5,2.6-1.1c0,0,0,0,0,0l4,1.5c1,0.4,1.5,1.6,1.1,2.6c0,0,0,0,0,0L133.6,173.2z"/>
</g>
</svg>
