<svg width="30" height="30" viewBox="0 0 30 30" fill="none" xmlns="http://www.w3.org/2000/svg">
<g clip-path="url(#clip0)">
<path fill-rule="evenodd" clip-rule="evenodd" d="M18.75 23.4375C18.75 23.6861 18.6512 23.9246 18.4754 24.1004C18.2996 24.2762 18.0611 24.375 17.8125 24.375H2.8125C2.56386 24.375 2.3254 24.2762 2.14959 24.1004C1.97377 23.9246 1.875 23.6861 1.875 23.4375V6.5625C1.875 6.31386 1.97377 6.0754 2.14959 5.89959C2.3254 5.72377 2.56386 5.625 2.8125 5.625H17.8125C18.0611 5.625 18.2996 5.72377 18.4754 5.89959C18.6512 6.0754 18.75 6.31386 18.75 6.5625V10.3125C18.75 10.5611 18.8488 10.7996 19.0246 10.9754C19.2004 11.1512 19.4389 11.25 19.6875 11.25C19.9361 11.25 20.1746 11.1512 20.3504 10.9754C20.5262 10.7996 20.625 10.5611 20.625 10.3125V6.5625C20.625 5.81658 20.3287 5.10121 19.8012 4.57376C19.2738 4.04632 18.5584 3.75 17.8125 3.75H2.8125C2.06658 3.75 1.35121 4.04632 0.823762 4.57376C0.296316 5.10121 0 5.81658 0 6.5625L0 23.4375C0 24.1834 0.296316 24.8988 0.823762 25.4262C1.35121 25.9537 2.06658 26.25 2.8125 26.25H17.8125C18.5584 26.25 19.2738 25.9537 19.8012 25.4262C20.3287 24.8988 20.625 24.1834 20.625 23.4375V19.6875C20.625 19.4389 20.5262 19.2004 20.3504 19.0246C20.1746 18.8488 19.9361 18.75 19.6875 18.75C19.4389 18.75 19.2004 18.8488 19.0246 19.0246C18.8488 19.2004 18.75 19.4389 18.75 19.6875V23.4375Z" fill="#F8F8F8"/>
<path fill-rule="evenodd" clip-rule="evenodd" d="M29.7262 15.6638C29.8136 15.5767 29.8828 15.4732 29.9301 15.3593C29.9773 15.2454 30.0017 15.1233 30.0017 15C30.0017 14.8767 29.9773 14.7546 29.9301 14.6407C29.8828 14.5268 29.8136 14.4233 29.7262 14.3363L24.1012 8.71126C23.9252 8.53522 23.6865 8.43633 23.4375 8.43633C23.1885 8.43633 22.9498 8.53522 22.7737 8.71126C22.5977 8.8873 22.4988 9.12606 22.4988 9.37501C22.4988 9.62396 22.5977 9.86272 22.7737 10.0388L26.7994 14.0625H10.3125C10.0639 14.0625 9.8254 14.1613 9.64959 14.3371C9.47377 14.5129 9.375 14.7514 9.375 15C9.375 15.2486 9.47377 15.4871 9.64959 15.6629C9.8254 15.8387 10.0639 15.9375 10.3125 15.9375H26.7994L22.7737 19.9613C22.5977 20.1373 22.4988 20.3761 22.4988 20.625C22.4988 20.874 22.5977 21.1127 22.7737 21.2888C22.9498 21.4648 23.1885 21.5637 23.4375 21.5637C23.6865 21.5637 23.9252 21.4648 24.1012 21.2888L29.7262 15.6638Z" fill="#F8F8F8"/>
</g>
<defs>
<clipPath id="clip0">
<rect width="30" height="30" fill="white"/>
</clipPath>
</defs>
</svg>
