<svg width="50" height="50" viewBox="0 0 50 50" fill="none" xmlns="http://www.w3.org/2000/svg">
<g clip-path="url(#clip0)">
<path d="M25.0179 50C38.8151 50 49.9999 38.8071 49.9999 25C49.9999 11.1929 38.8151 0 25.0179 0C11.2207 0 0.0358887 11.1929 0.0358887 25C0.0358887 38.8071 11.2207 50 25.0179 50Z" fill="url(#paint0_linear)"/>
<path d="M14.3752 28.7456L12.4153 30.1461L17.0315 36.6155L18.9914 35.215L14.3752 28.7456Z" fill="#222222"/>
<path d="M18.1342 29.3912L11.7354 34.1022L13.1625 36.0435L19.5614 31.3325L18.1342 29.3912Z" fill="#222222"/>
<path d="M40.1152 14.3885C35.2626 9.17266 29.691 12.9496 29.691 12.9496L10.64 26.6187L0.233818 21.8525C-0.539008 25.8813 0.772998 31.8345 0.934752 31.8345L7.76437 33.0935C8.12382 39.7482 14.9534 40.6475 14.9534 40.6475C19.9319 40.6115 22.8435 38.3273 23.5803 33.6331L32.2072 27.518C40.4747 28.9568 44.9678 19.6043 40.1152 14.3885ZM15.8161 38.2194C12.7608 38.2194 10.2805 35.7374 10.2805 32.6799C10.2805 29.6223 12.7608 27.1583 15.8161 27.1583C18.8715 27.1583 21.3517 29.6403 21.3517 32.6978C21.3517 35.7374 18.8715 38.2194 15.8161 38.2194Z" fill="#222222"/>
<path d="M34.6515 18.3453C35.4952 18.3453 36.1791 17.6609 36.1791 16.8165C36.1791 15.9722 35.4952 15.2878 34.6515 15.2878C33.8077 15.2878 33.1238 15.9722 33.1238 16.8165C33.1238 17.6609 33.8077 18.3453 34.6515 18.3453Z" fill="white"/>
<path d="M37.8866 20.8633C38.7303 20.8633 39.4142 20.1789 39.4142 19.3345C39.4142 18.4902 38.7303 17.8058 37.8866 17.8058C37.0429 17.8058 36.3589 18.4902 36.3589 19.3345C36.3589 20.1789 37.0429 20.8633 37.8866 20.8633Z" fill="white"/>
<path d="M35.5501 24.2806C36.3939 24.2806 37.0778 23.5961 37.0778 22.7518C37.0778 21.9075 36.3939 21.223 35.5501 21.223C34.7064 21.223 34.0225 21.9075 34.0225 22.7518C34.0225 23.5961 34.7064 24.2806 35.5501 24.2806Z" fill="white"/>
<path d="M32.1353 21.7626C32.9791 21.7626 33.663 21.0781 33.663 20.2338C33.663 19.3895 32.9791 18.705 32.1353 18.705C31.2916 18.705 30.6077 19.3895 30.6077 20.2338C30.6077 21.0781 31.2916 21.7626 32.1353 21.7626Z" fill="white"/>
<path d="M28.2354 28.0216C28.1635 28.2014 27.9478 28.2914 27.7681 28.2194L27.0492 27.9496C26.8695 27.8777 26.7796 27.6619 26.8515 27.482L28.4331 23.4173C28.505 23.2374 28.7206 23.1475 28.9004 23.2194L29.6193 23.4892C29.799 23.5611 29.8889 23.777 29.817 23.9568L28.2354 28.0216Z" fill="white"/>
<path d="M24.0117 31.1511C23.9398 31.3309 23.7242 31.4209 23.5444 31.3489L22.8255 31.0791C22.6458 31.0072 22.556 30.7914 22.6278 30.6115L24.2094 26.5468C24.2813 26.3669 24.497 26.277 24.6767 26.3489L25.3956 26.6187C25.5754 26.6906 25.6652 26.9065 25.5933 27.0863L24.0117 31.1511Z" fill="white"/>
</g>
<defs>
<linearGradient id="paint0_linear" x1="25.0269" y1="0" x2="25.0269" y2="50" gradientUnits="userSpaceOnUse">
<stop offset="0.01" stop-color="#440F9E"/>
<stop offset="1" stop-color="#A074DB"/>
</linearGradient>
<clipPath id="clip0">
<rect width="50" height="50" fill="white"/>
</clipPath>
</defs>
</svg>
