<svg width="57" height="57" viewBox="0 0 57 57" fill="none" xmlns="http://www.w3.org/2000/svg">
<path d="M28.5 0.000976562C12.7615 0.000976562 0 12.76 0 28.4997C0 44.2394 12.7603 56.9985 28.5 56.9985C44.241 56.9985 57 44.2394 57 28.4997C57 12.76 44.241 0.000976562 28.5 0.000976562ZM28.5 8.52243C33.7078 8.52243 37.9278 12.7437 37.9278 17.949C37.9278 23.1555 33.7078 27.3755 28.5 27.3755C23.2947 27.3755 19.0747 23.1555 19.0747 17.949C19.0747 12.7437 23.2947 8.52243 28.5 8.52243ZM28.4937 49.5474C23.2997 49.5474 18.5427 47.6558 14.8734 44.5249C13.9796 43.7625 13.4638 42.6446 13.4638 41.4716C13.4638 36.1924 17.7364 31.9674 23.0168 31.9674H33.9857C39.2673 31.9674 43.5237 36.1924 43.5237 41.4716C43.5237 42.6458 43.0104 43.7612 42.1153 44.5236C38.4473 47.6558 33.689 49.5474 28.4937 49.5474Z" fill="#F8F8F8"/>
</svg>
